<svg xmlns="http://www.w3.org/2000/svg" width="38.88" height="34" viewBox="0 0 38.88 34">
  <g id="Group_169" data-name="Group 169" transform="translate(1.547 1.5)">
    <path id="Path_544" data-name="Path 544" d="M17.291,5.995,2.787,30.209a3.425,3.425,0,0,0,2.928,5.137H34.724a3.425,3.425,0,0,0,2.928-5.137L23.148,5.995a3.425,3.425,0,0,0-5.857,0Z" transform="translate(-2.328 -4.346)" fill="#f7ff00"/>
    <g id="Icon_feather-alert-triangle" data-name="Icon feather-alert-triangle">
      <path id="Path_541" data-name="Path 541" d="M17.291,5.995,2.787,30.209a3.425,3.425,0,0,0,2.928,5.137H34.724a3.425,3.425,0,0,0,2.928-5.137L23.148,5.995a3.425,3.425,0,0,0-5.857,0Z" transform="translate(-2.328 -4.346)" fill="none" stroke="#000" stroke-linecap="round" stroke-linejoin="round" stroke-width="3"/>
      <path id="Path_542" data-name="Path 542" d="M18,13.5v6.85" transform="translate(-0.108 -3.049)" fill="none" stroke="#000" stroke-linecap="round" stroke-linejoin="round" stroke-width="3"/>
      <path id="Path_543" data-name="Path 543" d="M18,25.5h0" transform="translate(-0.108 -1.35)" fill="none" stroke="#000" stroke-linecap="round" stroke-linejoin="round" stroke-width="3"/>
    </g>
  </g>
</svg>
