<svg id="Layer_2" data-name="Layer 2" xmlns="http://www.w3.org/2000/svg" xmlns:xlink="http://www.w3.org/1999/xlink" viewBox="0 0 1000 1000"><defs><radialGradient id="radial-gradient" cx="500.01" cy="500" r="444.39" gradientUnits="userSpaceOnUse"><stop offset="0" stop-color="#234976"/><stop offset="0.01" stop-color="#234875"/><stop offset="0.39" stop-color="#22385b"/><stop offset="0.73" stop-color="#222e4b"/><stop offset="1" stop-color="#222a46"/></radialGradient></defs><path d="M832.78,982.54c-1.59,0-3.25-.08-5.09-.25-1-.09-2-.13-3.2-.13s-2.27,0-3.37.07-2.34.08-3.49.08c-4.65,0-10.14-.56-15.61-4.72-5-3.83-12-9.08-14.69-9.34-3-.29-5.73-2.08-8.93-4.16-2.9-1.88-6.18-4-8.94-4.42l-3.48-.5a93.71,93.71,0,0,1-16.05-3.26c-1.55-.48-2.9-1-4.21-1.45-4.23-1.53-7.88-2.85-16.76-3.31a47.27,47.27,0,0,1-11.43-1.89,12.2,12.2,0,0,0-3.36-.67,14.39,14.39,0,0,0-4.31.91,41.46,41.46,0,0,1-13.46,2c-2.37,0-4.58-.13-6.72-.26-1.85-.11-3.59-.22-5.2-.22h-1a60.94,60.94,0,0,1-11.41-1.59,49.68,49.68,0,0,0-8-1.23,4.35,4.35,0,0,0-.73,0,11.18,11.18,0,0,1-4.21.93,11,11,0,0,1-4.12-.92,21.74,21.74,0,0,0-5.6-1.37c-14.8-1.88-22.51-5.75-24.25-12.21-1-3.89-.72-7.24.95-10s4.75-4.67,9-5.55l1.62-.33c.64-.13,1.31-.27,1.48-.33l1-.65c.78-.51,1.95-1.28,3.76-2.4,2.2-1.36,4-2.27,5.47-3a18.36,18.36,0,0,0,7.68-6.09c5.23-6.47,7.33-12,5.62-14.82-2.6-4.28-2.69-6.91-2.54-9.67a8,8,0,0,0-.46-3.67c-.5-1.42-.88-2.36-1.19-3.12-1.17-2.92-1.41-4-1.51-9.41-.06-3.09-4.83-9.48-8.25-12.89l-.33-.37c-.25-.31-25.71-31-55.91-41.86-6.26-2.26-11.69-4-16.12-5.23l-.88-.23a46.59,46.59,0,0,0-10.8-1.89,11.28,11.28,0,0,1-7.28-2.51c-4.14-3-13.66-10-19.86-10a7,7,0,0,0-.82,0,63.05,63.05,0,0,1-7.82.36h-3.64c-2.74,0-9.15,0-10.91,1.54-2.85,2.47-3.4,3-4,5.08a6.8,6.8,0,0,1,3.94,3.42,6.57,6.57,0,0,1,0,5.46,24.38,24.38,0,0,1-2.61,4.58c-.95,1.38-1.22,1.85-1.22,2.32a6.72,6.72,0,0,0,.2,1.49c.55,2.51.8,5.14-2,9.59a8,8,0,0,0-.68,1.33,3.05,3.05,0,0,0-.16.52,6.59,6.59,0,0,0-.15,1,12.37,12.37,0,0,1-2.57,6.56c-3,4.06-8.58,5.5-12.77,5.5a10.68,10.68,0,0,1-5.53-1.26,6,6,0,0,1-2.78-3.68c-2.78-.44-5.27-.63-6.74-.73-.69-.06-1.13-.09-1.49-.14h-.55c-2.74-.06-10-.23-15.37-2.1a14.92,14.92,0,0,1-1.47-.55,12.06,12.06,0,0,1-4.9-3.59c-2.48-3.18-14.57-8.94-19-9-3.1-.07-9.18-1.55-18.83-4-5.6-1.41-14.06-3.54-15.92-3.55-.24,0-.55,0-.9,0A95,95,0,0,1,385,809.35l-.42-.07h-.28a8,8,0,0,1-2-.31l-1.12-.23-1-.22c-8-1.69-10.83-1.94-11.82-1.94h-.15c-1,.09-2,.12-2.9.14-.71,0-1.71,0-2.34.13a6.44,6.44,0,0,1-2.58,2.47c.8,5.17.39,8.22-1.34,10.31a6.12,6.12,0,0,1-4.72,2.22,7.7,7.7,0,0,1-4.11-1.29,26.71,26.71,0,0,1-3.59-2.79,10.78,10.78,0,0,0-2.13-1.64,11.08,11.08,0,0,1-2.24.21,24.24,24.24,0,0,1-4.15-.44l-1.12-.17a7.48,7.48,0,0,1-4.6,1.78c-.79,3.86-3.1,5.67-5.35,7.42-.49.38-1,.79-1.61,1.28-.91.76-1.48,1.28-1.84,1.63a8.33,8.33,0,0,1-.91,7.43c-1.29,2.11-3.73,4.37-6.74,4.37a5.76,5.76,0,0,1-5.62-4.48,8.05,8.05,0,0,1,1.16-6,24.42,24.42,0,0,0-5.63-.57c-3.7-.1-7.89-.22-10.25-3.55-2.59-3.65-1.64-8.42-1.07-11.27l0-.1c-1.14-2.36-3.29-7-1.78-11.9a16.19,16.19,0,0,0,.94-5.06,13.33,13.33,0,0,1-.89-4.2A23.41,23.41,0,0,0,291.7,787c-.8-2.23-6.46-9-12.32-9a7.34,7.34,0,0,0-2.18.33c-1.87.57-3.48,1-4.89,1.42-5.39,1.5-5.39,1.5-6,3.69a31.39,31.39,0,0,0-.86,5c-.22,2-.82,7.21-5.91,7.21a6.39,6.39,0,0,1-3.74-1.29l-.26-.19a5,5,0,0,1-.37.43,6.37,6.37,0,0,1-4.69,2,7.2,7.2,0,0,1-1.88-.25l-.59-.17a6.7,6.7,0,0,1-4.95,2l-.8,0-.69,0a8.09,8.09,0,0,0-1.39.12,8.9,8.9,0,0,0-2,.45,15.93,15.93,0,0,0-1.31,1.69,7.61,7.61,0,0,1-5.72,3.53c-2.35,2.24-6,3.07-8.8,3.07-6.43,0-7.63-4-7.85-5.22a7.92,7.92,0,0,1,.54-4.19c-1.18-.79-2.48-1.72-3.66-2.61-4.35-3.29-5.63-5-6.23-6.53a9.41,9.41,0,0,1,.59-7.55,9.18,9.18,0,0,1,3.92-4c.79-1.9,2.34-4,5.31-4a5.87,5.87,0,0,1,4.33,2,15.28,15.28,0,0,1,1.33,1.65l.43.58a7.51,7.51,0,0,0,1.44-.53c3.36-1.59,4.91-9.38,2.86-14.39-1-2.53-1.76-3-1.77-3l-.45-.06a8.26,8.26,0,0,1-2.75-.81,5.57,5.57,0,0,1-3-3.63,5.41,5.41,0,0,1-.15-1.35c-3.08-2.32-11.74-7.34-13.79-8l-.27-.08a6.61,6.61,0,0,1-2.28,5.84,7.72,7.72,0,0,1-5.21,2.26,8.43,8.43,0,0,1-5.06-2c-.06.31-.13.62-.21.94a4.73,4.73,0,0,0-.13,1.26c0,3.89-1.79,6.11-6,7.68a22.08,22.08,0,0,1-2.76.82c-1.29,3.81-5.11,4.31-7.31,4.59a4.54,4.54,0,0,0-2.36.81,6.85,6.85,0,0,1-2.47,1.16,5.89,5.89,0,0,1-1.11.12h0c-2.26,0-4-1.22-5-3.63h-.19a8.33,8.33,0,0,1-5.88-2.43l-.22-.21c-1.82-1.69-3.7-3.44-3.75-6.88a5.13,5.13,0,0,0-4-4.3l-1.43-.25c-5.91-1-8.88-1.5-12.95-4.71-.65-.52-1.17-1-1.61-1.32l-.5-.42c-.44,0-.93.08-1.12.1-2.57.29-2.73.38-5.39,1.83l-1.09.6A12.89,12.89,0,0,1,119,748.7a16,16,0,0,1-7.87-2.23c-2.18-1.27-3.34-3.65-4.58-6.17l-.47-.94a23.72,23.72,0,0,1-10,2.45,13.18,13.18,0,0,1-6.44-1.52,6.11,6.11,0,0,1-3.17-4.8c-.12-1.24-.48-4.91,7.39-11.79,1.65-3.58,3.07-7.59,3.09-8.77-.08-4.85,1.32-6.68,3.46-8.91l.52-.54a21.28,21.28,0,0,0,3.73-7.42,5.54,5.54,0,0,0,.26-1.34c-3.94-2.59-12.08-9-12.08-17.83a45.11,45.11,0,0,0-.76-7.22c-.78-4.84-1.67-10.31,1.63-15.85,2.33-3.89,2.51-10.25,2.38-12.37a4.84,4.84,0,0,1,.21-1.77c.86-2.82,2.18-8.33,2.08-11.12a18.91,18.91,0,0,1,2.33-8.93,11.94,11.94,0,0,0,1.41-4.11c0-.84,0-1.73,0-2.65,0-4.72-.06-10.6,3.87-15,3.17-3.57,8.12-6.56,11.39-8.53l1.82-1.12a15.51,15.51,0,0,0,1.69-1.61c2-2.12,5.1-5.32,9.84-5.32H131a11.87,11.87,0,0,1,4.86,1.16c2.68-2.49,8.53-7.35,13.29-7.35a7.08,7.08,0,0,1,1.79.22c6,1.56,12,16.74,12.26,17.39a11.33,11.33,0,0,1-.05,8c-.31,1-.38,1.29-.32,1.57.46,1.56,4.12,5,6.14,5.9,1.94-.92,6.24-4.53,8.64-6.55a61.09,61.09,0,0,1,8-6.11c4.07-2.3,6.53-5.7,6.65-6.8,0-.07.11-11.06,4.24-14.25a17.33,17.33,0,0,1,2-1.25,34.21,34.21,0,0,0,3-1.94,21.94,21.94,0,0,1-7.21-4.82,11.11,11.11,0,0,1-2.5-3.9c-.7-.27-1.43-.49-2.19-.72a18.79,18.79,0,0,1-6.71-3.18c-6.48-5.18-2.61-10.16-1-12.28a.86.86,0,0,1,.07-.1,9.45,9.45,0,0,1-2-3.35c-.06-.17-.15-.39-.18-.46-2.91-2.53-3.6-4.2-3.35-8q0-.48.06-1.11a1.39,1.39,0,0,0-.2-1,11,11,0,0,1-1.16-5.45,19.67,19.67,0,0,1,.22-2.48,6.37,6.37,0,0,1-4.54-5.78,6.92,6.92,0,0,1-6.68-6.08c-.69-4.27,3-6.94,5.72-8.9.46-.33.91-.65,1.26-.93a18.06,18.06,0,0,0,1.5-1.8c1.43-1.86,2.91-3.77,5.16-4.66a15.56,15.56,0,0,0,2.22-1.53,5.9,5.9,0,0,0,.36-.82,17.09,17.09,0,0,1,.3-5.75,7.38,7.38,0,0,1,1.4-3.13c-.38-.39-.77-.75-1-.94l-.33-.3c-2-1.95-1.88-4.51-1.79-6a11.62,11.62,0,0,0,0-1.31l-.11-.13c-1.81-2.17-4.54-5.44-1.38-11,.38-.68.7-1.2,1-1.63a4.32,4.32,0,0,0,.84-2.1c.07-.4.13-.77.18-1.14.34-2.22.85-5.58,4.76-8.26.43-.3.82-.55,1.18-.77-.43-3.91.19-5.43,3.15-8.45l.35-.36a16,16,0,0,0,.24-2.7,27.58,27.58,0,0,1,.79-6.12,47,47,0,0,1,1.47-4.55,17.7,17.7,0,0,0,.9-3c-.12-.14-.25-.29-.36-.4-1.1-1.26-4.05-4.61-2-9.24,3.11-7,8.37-15.94,15.7-18.37a17.84,17.84,0,0,1,5.53-.91,21.85,21.85,0,0,1,5.93.94c.35.1.78.22,1.09.29,1.9-1,4.19-3.14,4.78-4.94a24.78,24.78,0,0,0,.72-8.55,8.2,8.2,0,0,1,1.31-5.64l-.13-.1c-1.64-1.25-4.13-3.15-4.84-6.46a11.76,11.76,0,0,1-.28-2.6c-1.94-1.39-3.5-2.59-3.58-2.65l-.34-.28a6,6,0,0,1-1.89-5.17c.19-1.58,1.08-3.83,4.24-5.56a24.4,24.4,0,0,0,5.94-4.94c.1-.19.36-.77.59-1.29,1.29-2.91,3.23-7.31,7-9.4a13.31,13.31,0,0,1,5.75-1.44,11.47,11.47,0,0,0,7-2.48,35.11,35.11,0,0,0,4.89-4.14,15.65,15.65,0,0,1,3.64-2.94,8.2,8.2,0,0,0,2.63-2.34c.42-.51.93-1.14,1.61-1.84,1.43-1.53,9.56-13.41,12.77-18.81a20.29,20.29,0,0,1,6.54-7.09,11.29,11.29,0,0,0,2.15-1.8,22.63,22.63,0,0,0,1.95-2.79c1.77-2.79,4.18-6.6,8.87-7.47a14.79,14.79,0,0,1,2.6-.23,22.21,22.21,0,0,1,3.66.36,13.48,13.48,0,0,0,2,.22,2.73,2.73,0,0,0,1.08-.2c.47-.17.84-.31,1.17-.41a11.23,11.23,0,0,1,1.86-.46l.4-.05.73-.45a5.9,5.9,0,0,0,2.2-1.91,11.09,11.09,0,0,1,1.11-1.44,9.11,9.11,0,0,1,4.54-2.64,5.93,5.93,0,0,1,.72-.1l.3,0,1-.12c1.45-.15,3.6-.39,5.1-.57a30.29,30.29,0,0,0,4.1-5c2-4.31,5.74-7.1,9.5-7.1a7.27,7.27,0,0,1,1.68.19,11.62,11.62,0,0,1,3.79,1.83,9.31,9.31,0,0,0,1.87,1,14.23,14.23,0,0,1,3.2-.4,9,9,0,0,1,4.93,1.42,6.61,6.61,0,0,1,5.36-4.42,14.65,14.65,0,0,1,5.51-3.84c1-.45,1.82-.85,2.5-1.18,2.33-1.12,4.16-2,7.2-2a22,22,0,0,1,2.39.14c.82.08,1.65.16,2.11.16h.18c.12,0,.62-.22,1-.37s1.12-.43,1.91-.71,1.38-.55,2-.82a11.08,11.08,0,0,1,4.56-1.23,7.28,7.28,0,0,1,5.39,2.44l1.16-.74c3.27-2.11,5.85-3.77,10-3.77h.44l.89,0c.32-.32.77-.79,1.18-1.23l.19-.2a20.38,20.38,0,0,0,1.49-1.79c1.25-1.63,3.14-4.08,7.26-4.08a11.65,11.65,0,0,1,1.29.07,10.59,10.59,0,0,0,1.16.08h.07c.17-.07.52-.25.81-.4s.78-.39,1.28-.62a13,13,0,0,1,5.6-1.29,10.62,10.62,0,0,1,8,3.37,8,8,0,0,1,.89,1.16,20.19,20.19,0,0,1,2.23-.13,12.7,12.7,0,0,1,4.81.92,8.44,8.44,0,0,0,2.32.57c.29,0,.57,0,.81,0a5.08,5.08,0,0,0,1.55-.25,9.19,9.19,0,0,1,2.59-.43,7.34,7.34,0,0,1,4,1.2c.49.31.87.51,1.19.68a13.17,13.17,0,0,1,4,3.13,6.16,6.16,0,0,0,.52.52,6.15,6.15,0,0,1,2.09,5.12c0,.37,0,.89,0,1.62.1,2.1.8,3.06,2,4.57l.05,0c1-.73,1.27-1.18,3.29-5.28l.12-.25c.41-.83.79-1.64,1.15-2.41,1.86-4,3.78-8.16,8.19-10a14.66,14.66,0,0,1,5.05-1.35,43.17,43.17,0,0,0,5.2-.92l2.09-.46c5.16-1.12,7.63-1.81,8-3.29a19.66,19.66,0,0,0,.58-4.17,9.82,9.82,0,0,1,1.84-6c0-.11,0-.22,0-.31a8.42,8.42,0,0,1,.63-4.94c.11-.5.27-1.59.37-2.34.58-4,1.17-8.21,5.09-9.36a6.65,6.65,0,0,1,2-.28,11.85,11.85,0,0,1,1.58.12,8.05,8.05,0,0,0,.89.07c.24,0,.69,0,1.61-.73,4.42-3.52,10-9,10.84-10.57a9.4,9.4,0,0,1,5.1-5.05,10.38,10.38,0,0,0,1-.54,8.9,8.9,0,0,1,.94-4,9.49,9.49,0,0,1,.91-1.59,9.11,9.11,0,0,1,.77-1l-.19-.11a27.86,27.86,0,0,1-3.21-2.14c-4.68-3.64-6.69-5.61-7.69-7.53-.06-.12-6-14.61-1.26-21.35a11.91,11.91,0,0,1,2.54-2.61,8.42,8.42,0,0,1-1.47-5.85,4.55,4.55,0,0,0,0-1.39c-.54-2.3-1-2.78-3.54-5.47a38.05,38.05,0,0,1-3.61-4.76,19.55,19.55,0,0,0-2.65-3.42c-2.17-1.3-3.58-3.72-4.08-7-.61-4.1.24-9.87,3.51-13.67-.41-3,.8-5.37,3.93-7.89a21.2,21.2,0,0,0,5.37-6.4c.52-.84,1.06-1.7,1.7-2.63a10.32,10.32,0,0,1,4.4-3.86c.06-.1.14-.24.24-.43a12.46,12.46,0,0,0,.9-3.91,22.21,22.21,0,0,1,2.54-8.56c.66-1.15,1-1.93,1.4-2.69,1.05-2.19,1.87-3.74,5.33-7.95l1.65-2a24.37,24.37,0,0,1,4.55-4.7L537.15,67a21.85,21.85,0,0,0,3.09-3c1-1.25,1.78-2,4.79-4,1-.67,1.89-1.23,2.67-1.72s1.73-1.1,2.24-1.48c0-.16-.08-.35-.14-.6a6.41,6.41,0,0,1,.67-5.39,6.73,6.73,0,0,1,4.81-2.7l.28,0c0-.06,0-.13,0-.2-.65-3.13,0-5.17,2.56-8.11a10,10,0,0,0,1.57-2.4,16.09,16.09,0,0,1,3.53-4.83,10.91,10.91,0,0,1,4.24-2.65c.34-.12.8-.28,2.54-2.2,1.11-1.23,1.87-2.15,2.48-2.89,2.18-2.64,3.31-3.71,7.36-5.39a20.74,20.74,0,0,1,8.06-1.94,12.06,12.06,0,0,1,7.27,2.4c1.91,1.39,4.21,3.3,5.74,4.56.64.53,1.14.95,1.4,1.15s.6.45,1.48,1.14c2.31,1.83,8.46,6.7,11.92,8.52a7.84,7.84,0,0,1,4.41,5.87,56.91,56.91,0,0,0,5.84-.87,18.6,18.6,0,0,1,3.43-.45c2.35,0,5.44,1,6.76,5.77.16.57.37,1.29.52,1.75.2.06.49.13.91.21a2.09,2.09,0,0,0,.49.06,1.85,1.85,0,0,0,.51-.13,9.08,9.08,0,0,1,3.07-.57,10.31,10.31,0,0,1,4.69,1.25c1.81.9,6.72,2.86,11.06,4.58S665.6,56,667.78,57a13.64,13.64,0,0,1,4.79,3.58c.52.58.76.85,3.2,1.2a16.26,16.26,0,0,0,2.39.19,15.7,15.7,0,0,0,2.22-.18,15.2,15.2,0,0,1,2.14-.19,9.65,9.65,0,0,1,6.59,2.85,26.46,26.46,0,0,0,3.65,2.69,22.21,22.21,0,0,1,5.89,5c.65.83,2.39,1.23,3.79,1.56.7.17,1.37.33,2,.55.65-.23,1.79-.77,2.67-1.19l1.47-.69a15.13,15.13,0,0,1,6.3-1.56,8.08,8.08,0,0,1,2.25.29,5,5,0,0,1,1.62.83c2.25,1.74,3.44,5.08,1.9,15.74-1.41,9.65-1.42,12-.75,14,.58,1.66.89,4.37,1.43,9.42s1.48,13.73,2.73,16.18c3.35,6.55,3.68,10.5,1.52,18.4-.35,1.28-.76,2.65-1.18,4.06-.93,3.11-3.4,11.35-2.27,13.08,3.86,5.86,6.65,10.21,8.28,12.93.16.28.32.53.46.75,3,4.71,1.54,7.12-1,11.5l-.44.75c-2.17,3.73-2.22,4.6-2.24,5s0,.5-.05.74a12.63,12.63,0,0,0,.77,6.38c2.49,5.76.51,17.71-5,22.5l-.82.71a23.15,23.15,0,0,0-5.3,5.85l-.43.6c-2.08,2.84-2.08,2.84-2.5,5.53a28.64,28.64,0,0,1-.85,3.85c-.11.39-.25.81-.4,1.21a21.36,21.36,0,0,1-1.88,3.88l-.05.09c-.2.34-.42.69-.68,1.08a30.79,30.79,0,0,0-3.59,7.76c-.43,1.25-.79,2.37-1.12,3.39-1.45,4.49-2.5,7.73-5.65,11.49a20.14,20.14,0,0,1-3.57,3.3c-1,.72-1.1.83-1.57,3.16-.88,4.3-.13,5.77,0,6,3.43,2.69,2.19,6.88,1.53,9.13-.5,1.7-1.07,3.62-.55,4.74a25.24,25.24,0,0,0,1.34,2.47c2.22,3.71,3.68,7.28-.83,13.43-1.24,1.71-2.17,2.76-2.84,3.54-1,1.13-1,1.13-1.49,4.15a22.63,22.63,0,0,0-.28,3.56c0,3.66-.49,6-4.43,11.45a47.77,47.77,0,0,0-5.18,8.88c-.85,1.78-1.8,3.79-3.33,6.49a8.92,8.92,0,0,0-.57,1.23c-.08.22-.16.45-.23.68a26.15,26.15,0,0,0-.5,10.12c1.84,1.84,3.58,5.26,4.45,11.5a41.88,41.88,0,0,0,2.2,9,23.09,23.09,0,0,1,1.54,6.82c.27,4.74.13,11.68-4.15,17-1.45,1.82-7.12,11.56-13.49,23.17l-.18.33c-.12.23-.24.46-.37.69-2.5,4.57-4.51,8.38-5.36,10.14a15.77,15.77,0,0,0-1.67,6.34,50.39,50.39,0,0,1-1.59,8.63c-1.45,5.39-.39,14.84,0,18.4.25,2.21.47,4.16-.93,5.79-.11.17-.25.39-.41.67l-.34.58c-3.67,6.3-5.76,11.44-5.86,13.09,0,.47,0,.6,1,1.74,1.19,1.39,4,4.62,2.09,9.19a54.32,54.32,0,0,1-3.44,6.28,42.72,42.72,0,0,0-3.7,7c-1.17,4-2.54,9-3.1,11.41a6.14,6.14,0,0,1,1,4.28c0,.36,0,1.21,0,1.91.17,5.61.19,10.95-1.54,14.53a33.19,33.19,0,0,0-2,5.66c-.1.38-.2.73-.28,1-.15.61-.27,1.13-.36,1.52l-.05.21c0,.36-.11,1.33-.18,2.2-.55,7.15-1.33,15.17-3.59,19.91a58.35,58.35,0,0,0-4.17,13.27c0,.54-.07,1.17-.15,2.09-.25,2.86-.73,8.18.24,12.61a23.59,23.59,0,0,0,3.32,7.24,20.58,20.58,0,0,1,3.1,6.89c.1.55.18,1,.25,1.46,0,.19.07.38.1.56l.27.19a7.47,7.47,0,0,0,1.35.64,9.33,9.33,0,0,1,6.14,6.16,4.35,4.35,0,0,0,.67,1.25,6.92,6.92,0,0,1,.9,7.26,8.12,8.12,0,0,1-.62,4c4.07,3.75,4.28,6.14,4.36,7a8.07,8.07,0,0,0,.91,3.3c1.2,2.36,1.83,4.25,2.4,9.21.09.74.18,1.36.25,1.9.44,3.23.59,5-.85,9.81a22.55,22.55,0,0,1-4.21,7.53c-.33.43-.76,1-1,1.35,0,.14.05.31.07.49.43,2.9.53,6-2.9,11.88a34.39,34.39,0,0,0-2.93,6.24c-.08.25-.16.5-.23.74-.53,1.85-.93,4.3.06,5.85,1.51,2.34,5.25,4.94,8.21,4.94a3.37,3.37,0,0,0,2.05-.62,39.66,39.66,0,0,1,4.93-2.9c3.43-1.77,3.5-1.81,3.28-5-.37-5.39.21-8.77,4.35-11.14.54-.31.68-.39,1.13-1.35,2.53-5.47,4.08-12.44,3.46-15.54-.72-3.53.08-8.59.86-13.48a49,49,0,0,0,.75-5.92c-.07-.55-.15-1.28-.24-2.11-.26-2.42-1-8.83-1.44-10.23a61.85,61.85,0,0,1-1.91-7.24c-.52-2.26-1.06-4.59-1.54-6.25-1.22-4.18-2.47-8.5,1.58-13a8.17,8.17,0,0,1,6.35-2.6c5,0,10.87,3.22,14,7.66,3.37,4.8,5.19,8.55,5.19,14.55a41.25,41.25,0,0,1-.88,7.16c-.55,3-1.11,6.15-.77,8.62a24.9,24.9,0,0,1-.66,8.7c-.39,1.92-.76,3.72-.36,4.51a21.28,21.28,0,0,1,1.71,4.53c0,.16.09.35.14.51s.31.19.6.34c4.61,2.37,6,4.58,6.93,7.83l.14.49c0,.08.32.56.53.92a19.85,19.85,0,0,1,3.15,11.14c0,.61,0,1.14,0,1.63-.08,5.1-.36,6.46-3.73,12.16-3.11,5.27-4,7-3.9,11.57.11,5.13.68,6.53,2.83,11.06,2.7,5.67,3.59,8.9,3.42,12.36l0,.6c-.16,2.51-.49,7.72,2.58,12.55a33.84,33.84,0,0,0,3,4.1c2,2.4,3,3.91,4.48,9.2.69,2.37,1.17,4.94,1.64,7.41.73,3.87,1.83,9.72,3.54,10.68,5.18,2.91,6.27,4.1,8.91,7.41l1.07,1.33c3.61,4.44,7.73,12.27,8.09,17.17a10.51,10.51,0,0,0,4,7.64,6.62,6.62,0,0,0,4.23,1.71,6.5,6.5,0,0,0,2.65-.61,5.49,5.49,0,0,0,1.13-.6l.34-.51a25.17,25.17,0,0,1,2.15-2.87c.88-1,1.52-1.68,2-2.15a3.92,3.92,0,0,0,1.14-1.78c-1.75-5.07,2.72-7.85,4.67-9.06a9.2,9.2,0,0,0,3.08-2.6,8.05,8.05,0,0,1,4.12-3.15,9.11,9.11,0,0,1,3-.48,17.06,17.06,0,0,1,3.17.37l.66.12a6.39,6.39,0,0,1,2.21-.39c1.77,0,4.33.71,6.47,4.07l.12.16c3.41,4.54,5,7.28,5.49,9.39a9.41,9.41,0,0,0,3.87,3.14,17.88,17.88,0,0,1,3,1.86l1.2-.28a16.9,16.9,0,0,1,4-.65,7.66,7.66,0,0,1,5.6,2.35,8,8,0,0,1,2.31,4.13,6,6,0,0,0,.87,2c1.07,1.78,2.18,3.3,3,4.41a16.56,16.56,0,0,1,1.74,2.69,8.71,8.71,0,0,1,.39,1.1c.37,1.21.37,1.21,1.26,1.21l.52,0c2.39-.23,4.1-.39,5.58-.39,2.65,0,6.42.52,8.53,5.05a12.24,12.24,0,0,0,.92,1.69,18.1,18.1,0,0,1,3.42-.41,14.47,14.47,0,0,1,6.61,1.87,4,4,0,0,0,.61.26l.5-.13a16.79,16.79,0,0,1,4.26-.56,8.91,8.91,0,0,0,1,0,11.19,11.19,0,0,1,3.48-1.09,15,15,0,0,0,1.65-.38,14,14,0,0,1,3.9-.64,11.12,11.12,0,0,1,3.1.45,7.84,7.84,0,0,1,3.27-.68h.38c2.54.09,9.33.33,13.66,6.8a21.91,21.91,0,0,1,2.74,7c.86,3.34,1.55,6,4.63,8.44a22.21,22.21,0,0,1,7.42,10.47c.13.35.3.78.43,1.09a10.24,10.24,0,0,1,5.55,5.43,19.9,19.9,0,0,0,2.75,4.11c.48.57.92,1.09,1.33,1.56,3.48,4,5.39,6.26,5.72,11.44,0,.12,0,.21,0,.28l.18.17a13.62,13.62,0,0,1,3.4,5l.46,1.12c1.54,3.71,3.29,7.92,1.3,13.74-.64,1.87-1.68,4.52-2.78,7.32-1.61,4.12-3.44,8.8-4.3,11.74a23.75,23.75,0,0,0-.8,4.42,23.79,23.79,0,0,1-2.61,9.23c-2.61,5.1-3.81,6.43-7.35,10.39l-1.79,2c-.93,1-1.7,2.07-2.45,3.07-3.76,5-7,8.41-17.27,9.67a82.65,82.65,0,0,0-16.9,4.11c-2.59.85-5,1.66-7.67,2.31l-2.25.55C841.81,981.61,838.1,982.54,832.78,982.54Z" fill="#23639e"/><path d="M907.94,914c-1.53,4.47-5.62,14-7.15,19.28s-.38,7.53-3.06,12.77-3.45,5.74-8.43,11.36-5.23,9.7-16.59,11.1-17.88,4.73-25.15,6.52-11,3.06-19.41,2.29-15.7,1.92-23.1-3.7-13.28-10-17.24-10.34-10.72-7.53-17.62-8.55-12.25-1.53-18.76-3.58-9.83-4.34-22.21-5-11.75-4.46-20.94-1.4-17.49,1.15-24.51,1.28-18.13-4.09-22.21-2.43-3.45-.64-11.49-1.66-18.64-3.32-20.05-8.55.64-8.17,6.13-9.32,2.81-.26,9.45-4.34,9.06-3.58,14.42-10.21,9.58-14.68,6-20.56-.51-6.51-2.55-12.38-2.3-4.21-2.42-11-9.71-16.34-9.71-16.34-26.17-31.91-58.08-43.4c-7.07-2.54-12.41-4.22-16.5-5.34l-1-.26c-13.33-3.53-12.36-.69-16.34-3.59-5.24-3.83-16.21-11.88-24.26-10.86s-20.17-1.14-25,3.07-5,5.23-6.13,9.83,6.26,2.3,4.73,6-4.21,5.36-4.21,8.81,1.78,4-1,8.42a12.56,12.56,0,0,0-1.14,2.26,8.48,8.48,0,0,0-.33,1.07c-.48,2,0,3.26-1.87,5.74-2.66,3.57-9.8,4.08-11.72,2.93s2.81-2.93-2.43-4a100.46,100.46,0,0,0-10.59-1.27c-.49-.1-9.23.1-14.89-1.88-.38-.12-.74-.26-1.09-.41a7.3,7.3,0,0,1-2.91-2c-3.58-4.6-17.24-10.85-22.86-11s-30.76-7.79-35.1-7.53-17-2.3-14.56-1.66a1.69,1.69,0,0,1,.26.08s-.78-.16-1.92-.4l-1.19-.26c-4.08-.86-11-2.24-13.44-2-3.83.34-7.75-.34-8.94,2.38s-4.68-.85-3.66,4.51,1.11,10-2.3,7.83-5.44-5.78-9.19-5.1-8.08-1.87-9.7.42-6.21-1.1-6.3,3.07-1.87,4.68-5.45,7.66-4.76,4.42-3.4,7.06-3.06,6.89-3.66,4.51,4.94-5.7-.08-8.68-13.54-.51-15.41-3.15.17-8.17,0-9.19-3.4-5.62-2.13-9.7,1.45-7.32.77-8.51-.34-5.19-1.87-9.45-10.73-14.81-20.68-11.74-12.6,2.55-14.22,8.59-.51,9.7-2.8,8.09-.69-5.45-2.64-5.53-3.79-.73-3.66,1.53,0,5.95-2.47,5.27S246.37,790,245,792s-1.83.69-5.61,1.32-4.39,1.19-6.51,4.17-3,0-4.77,2.43-8.3,2.68-8.6,1,2.73-4.9.6-6.09-9.49-6.3-10.21-8.17.55-5,2.68-5.53,1.49-4.55,3.19-2.77,2.68,5.71,8.94,2.77,8.29-13.66,5.36-20.81-5.83-5.66-7.28-6.42,1.28-.77-.85-3.15-14.47-9.53-17-10.22-5.53-4.08-7.15.35,2.13,4.42-.17,6.55-3,.25-6.72-2-8.34-2-7.32.94,3,1.36,2.12,4.68.92,4-3,5.5-5.39.41-5.55,2.3.29,2.36-3.42,2.84-4.53,1.88-5.26,2-.8-3.74-3-3.74-3,.64-4.79-1-2.36-2.14-2.36-3.55-1.5-7.94-8.2-9.09-8.81-1.34-12.13-4-2.94-3.13-6.89-2.68-4.53,1-8.3,3-7.6.32-9.13-.58-3-5.48-4.47-7.34-1-2.1-5.1-.06-9,2.81-12,1.15,5.87-9.11,5.87-9.11,4.08-8.44,4-11.95.7-3.9,2.62-5.94,3.64-5.55,4.85-9.32-.13-6.06-.13-6.06-11.45-6.3-11.45-14.64-3.48-14.39.17-20.51,3.07-15.24,3.07-15.24,2.47-8.08,2.3-12.76,3.57-8.09,3.74-12.68-.68-10.81,2.64-14.56,9.53-7.06,12.17-8.76,4.94-6.22,8.94-6.13,4.59,3.4,8,.17,8.51-6.89,10.8-6.3,7.49,10.9,8.86,14.38-1.37,5.37-.6,8.86,6.77,9.14,10.6,9.91,14.55-10.59,19.53-13.4,9.19-7.66,9.19-11.11,1.15-9.45,2.3-10.34,6.38-3.19,7.53-6.13a1.46,1.46,0,0,0,.07-.19,3.14,3.14,0,0,0,.18-1,4,4,0,0,0-.91-2.56,5.84,5.84,0,0,0-.78-.83,4.45,4.45,0,0,0-.48-.38A18.68,18.68,0,0,1,198,565c-2.74-2.94-.57-3.51-3.64-4.85s-5.81-1.47-8.3-3.45-2.1-2.75-.12-5.3,3.78-4.3,1.06-5.66-1.62-3.15-3.74-5-1.79-1.79-1.62-5.19-1.45-3.24-1.36-6.55,1.36-4.69-.77-6.22S175.9,522,175.9,520s.17-5.27-2.73-4.59-3.74-.17-4-1.7,3.41-3.66,5.2-5.11,3.65-5,5.36-5.7A20.93,20.93,0,0,0,184,500s1.75-2.69,1.49-4.39a12,12,0,0,1,.21-4.55c.34-1.83,2.77-2.21,2.22-4.21s-2.68-3.83-3.58-4.69.68-4.44-1.17-6.68-2.74-3-1.21-5.68,1.85-2.68,2.36-5.23.26-4.47,2.87-6.26,3.77-1.78,3.39-4.85-.39-2.87,2-5.36,1.08-6.57,2.28-11,1.93-4.89,2.57-8.6-4.28-4.59-2.81-7.91S201,407.06,207.34,405s9.79,1.6,12.56.36,6.72-4.42,7.95-8.17a29.65,29.65,0,0,0,.94-10.68,2.93,2.93,0,0,1,.81-2.64s1.49-2.72.55-4.46-4.55-3-5.1-5.58.63-3.57-1.54-5.1-4.17-3.07-4.17-3.07-1.3-1.19,1.38-2.66,6.86-5,7.88-6.86,2.68-7.12,5.68-8.78,6.89.45,13.28-4.27,5-4.92,8.17-6.83,3.44-3.13,5.23-5,10.28-14.36,13.47-19.73,5.3-5,8.11-8.1,4.21-8,8-8.68,6.44,1.34,10.18-.1l.95-.34a6.45,6.45,0,0,1,1-.25c1.05-.17.58.36,3.09-1.23,3.41-2.17,3.38-3.19,4.28-4.15a4.09,4.09,0,0,1,1.93-1.17l.48,0,1.08-.12c2.44-.26,6.87-.77,6.87-.77s5-4.94,6.3-7.66,3.66-4.6,5.53-4.17,4.51,3.66,7.83,2.89,4,0,6.3,1.7,1.95,2.81,4.17.34-.17-4.93,3.06-5.44,1.36-1.88,6.47-4.17,5.36-3.07,9.53-2.64,3.57.17,7.4-1.19,5-2.9,7-.51,1.53,3.23,5.7.59,5.79-4,9-3.91,3.23,0,6-3,2.72-4.6,5.87-4.26,3.23-.08,6-1.4,6-1,7.75.94-.64,3.57,4.46,2.85,4.64.8,8.94,1.27,4.85-1.4,6.81-.17,2.51,1.11,4.17,2.94,1.19.38,1.36,4.13a11.54,11.54,0,0,0,3.17,7.51,5.22,5.22,0,0,0,5,1.84,5.07,5.07,0,0,0,1-.35,5.23,5.23,0,0,0,.67-.41c2.3-1.66,2.87-2.87,5.17-7.53s3.57-8.68,6.83-10.08,2.62-.45,9.38-2,12.55-2.24,13.83-7.43.09-6.77,1.79-8.64,0-4.42.89-5.83.94-8.64,2.36-9.06,4,1.32,7.77-1.7,11.15-9.73,12.3-12.47,3.13-2,5.74-4.6-.25-1.59,1.28-4.91a4.67,4.67,0,0,1,.46-.8,4.75,4.75,0,0,1,.66-.78c1.57-1.5,3.37-1.38,2-3.91-1.73-3.19-3.2-2.94-6.32-5.36s-5.62-4.53-6.32-5.88-4.15-12.53-1.6-16.19,10.13-4.25,5.19-6.55-2.55-3.74-3.4-7.32-2-4.85-4.77-7.74-4.76-7.49-7.32-9-2.59-9.53.73-13.23-1.41-3.45,3.19-7.15,5.74-6.76,8-10.08,3.07-1.15,5-4.85.89-8,3.32-12.26,1.53-4.21,6.26-10,2.68-3.57,8-8.17,2.42-3.32,7.4-6.64,7-3.95,7.15-6.76-1.66-4,1-4.34,4.79-.19,4.73-3.77S559.24,46,561.85,43s2-4.28,4.79-6.9,2.62-.25,7-5.1,3.58-5.17,8.05-7,7.59-2.24,10.46-.13,6.77,5.49,7.28,5.81,9,7.4,13.89,10-2.46,7.32,6.81,6.47,10.13-2.89,11.15.77,1.36,4.76,5.28,5.53,3.74-1.7,7.49.17,17.19,6.89,21.61,8.94,2.39,4.17,9.37,5.19,7.23-1.7,10.72,1.44,6.55,4,8.94,7.07,6.8,3.15,8.51,3.91,4.17-.68,7.49-2.21,5-1,5-1,1.44,1.11,0,11.06-1.62,13.19-.51,16.34,1.74,21,4.42,26.22,3.07,7.78,1.15,14.8-5.74,16.73-2.81,21.2,6.26,9.57,8.17,12.76,2.17,2.43-1,7.92-2.81,6.51-2.94,7.66a18.19,18.19,0,0,0,1.15,8.93c1.66,3.83.13,13.41-3.7,16.73s-3.83,3.19-6.89,7.4-3.19,4.21-3.83,8.3a24.11,24.11,0,0,1-.7,3.19q-.13.48-.3.9a16.86,16.86,0,0,1-1.55,3.18,36.43,36.43,0,0,0-4.69,9.75c-2.21,6.47-2.72,9.53-5.87,13.28s-4.93,2.38-6.21,8.68,0,9.53,1.79,10.89-2.77,7.06-.47,12,4.85,5.62,1,10.85-4.21,3.58-5.23,9.83,1.14,6-3.83,12.9-5,9.06-8.81,15.83a13.38,13.38,0,0,0-.89,1.92q-.18.48-.33,1c-2,6.55-.31,14.61-.31,14.61s2.8,0,4.08,9.19,3.45,10.85,3.7,15.45,0,9.82-3.06,13.65c-2,2.51-8.75,14.36-14,23.88-.18.33-.35.66-.53,1-2.5,4.58-4.58,8.51-5.5,10.42-2.89,6-1.36,7.66-3.58,15.83s.28,22.11,0,22.3a13.94,13.94,0,0,0-.87,1.37l-.3.51c-2.1,3.6-6.32,11.46-6.56,15.35-.32,5.11,4.9,5.83,3.45,9.32s-6.21,10-7.32,13.79-3,10.55-3.4,12.77,1.36,2.38,1.1,3.65.81,11.09-1,14.92a38.91,38.91,0,0,0-2.36,6.52c-.11.4-.21.78-.3,1.13-.22.87-.37,1.56-.47,2-.32,1.4-.7,15.32-3.38,20.93s-4.66,13.73-4.66,15.32-1.23,9.32.21,15.88,5.7,10.21,6.38,13.95.35,3.83,2.73,5.45,4.59,1.19,5.53,4.17,2.72,3.23,1.7,5.11.43,2.63-1,4.68-.08,3.4-.08,3.4,4.34,3.41,4.5,5.23a13.27,13.27,0,0,0,1.43,5.13c.9,1.76,1.39,3.09,1.9,7.51s1,4.86-.43,9.71S645,680.76,645,683.4s1.54,4-2.12,10.3a38.66,38.66,0,0,0-3.35,7.18c-.11.33-.22.67-.31,1-1.05,3.65-1.08,7.12.68,9.86,3.06,4.76,11.49,9.87,17.36,5.7s10.89-3.57,10.3-12.34,2.29-4.17,5-10,4.76-14,3.83-18.64,2.06-15.7,1.68-19-1.15-11.49-2-13.59-2.17-9.13-3.32-13.09-1.66-5.87.51-8.3,9.38.13,12.51,4.6,4.28,7.15,4.28,11.68-2.36,11-1.6,16.47S685.81,665.82,688,670s.64,5.49,4.6,7.53,4,3.32,4.59,5.36,3.58,4.72,3.45,10.47.26,5.74-3.06,11.36S692.83,713,693,719s.89,8,3.32,13.1,3.06,7.53,2.94,10-.9,9.44,3.32,16.08,4.72,4.47,6.89,12,2.3,18.13,7.53,21.07,5.23,3.44,8.55,7.53,6.73,10.89,7,14.38a15.5,15.5,0,0,0,5.79,11.15A11.08,11.08,0,0,0,750.37,826c3.57-1.62,2.72-2.22,5.36-5.28s2.72-2.3,4.17-5.79-2.73-3,2.47-6.21,4-4.51,6.21-5.28,5,.94,6.64.09,2.89,1.45,3.06,1.7,4.43,5.7,4.87,7.87,3.26,4.92,6.58,6.51,2.87,3,6.25,2.24,4.79-1.41,6.26.06.38,1.72,2.42,5.14,4.09,5.78,4.47,6.61,1,5.78,7.19,5.19,7.92-.77,9.11,1.79,2.81,5.19,5.87,4.59,3.92-.77,7.41.94,3.91.08,7.57.08,2.55-.76,5.28-1.19,4.08-1.53,6.81-.6,2.29-.68,4.51-.59,6.8.25,9.7,4.59,1.53,11.11,8.42,16.6,5.11,10.85,8.68,12.13,2.43,3.19,6.77,8.3,5.62,6.12,5.87,10.08,2.3,2.94,4,7S909.47,909.53,907.94,914Z" fill="url(#radial-gradient)"/><path d="M302.68,294a6.45,6.45,0,0,0-1,.25,73.65,73.65,0,0,1-.21,10.61c-.72,6.05-1.15,10.35-.71,14.81.39,4.06.3,4.32-.9,7.51l-.19.52c-1.43,3.85-2.63,7.6-1.56,11.16,1,3.4,1.47,6.44.34,10.2a4.2,4.2,0,0,0-.12,3c.24.75.58,1.79-.61,6.39-1.3,5-.63,7-.14,8.5a3.56,3.56,0,0,1,.15,2.68,4.32,4.32,0,0,1-1.34,2.07c-.86.81-1.36,1.49-1.05,4.09.28,2.3.41,4.13.53,5.9.1,1.48.2,2.87.37,4.41a4.59,4.59,0,0,0,1.29,2.79c.63.74,1.05,1.22.16,3.55a7.48,7.48,0,0,0,.29,6.14,5,5,0,0,1,.54,3c-.3,1.45-.62,2.77-.91,4s-.53,2.18-.71,3.13c-.14.7-.24,2.68-.35,5.19-.21,4.33-.51,10.87-1.24,12.21s-2.65,3-4.73,4.81c-1.38,1.22-2.82,2.49-4,3.72a20.68,20.68,0,0,1-2.72,2.28c-2.28,1.71-4.43,3.32-3.19,6.51a13.35,13.35,0,0,1,1,5.12,20.72,20.72,0,0,0,.4,3.7,41.11,41.11,0,0,0,2.43,7.44l.3.76a49,49,0,0,0,4.07,7.74c.08.09.3.38-.06.9-.78,1.14-3.58,2.29-6.62,1.4a18.71,18.71,0,0,0-6.92-.24c-1.58.15-3.21.31-3.49-.17a8.47,8.47,0,0,1-.54-1.25c-.46-1.23-1-2.62-2.18-3.09a2.84,2.84,0,0,0-2.33.27c-.67.34-1.42.62-2.14.9-2.55,1-5.44,2.11-5.88,5.81-.28,2.38-1,2.87-2,3.61a8.3,8.3,0,0,0-2.55,2.63,34.49,34.49,0,0,1-2,2.84,14.73,14.73,0,0,0-2.59,4.61,13.45,13.45,0,0,0-.62,2.52c-.18,1.13-.27,1.7-2.23,3.75-3.17,3.3-3.61,5.84-3.62,5.95l-.08.5.5.08c.73.11,2.71.63,3.07,1.71.27.81-.48,1.81-1.16,2.5-2,2.05-2.17,2.58-2.05,3.23,0,.14.08.42-1.65,2.19-1.08,1.1-2.22,2.24-3.33,3.34-3,2.93-5.52,5.46-6.29,6.82s-.74,1.53-.36,2.77a28.48,28.48,0,0,1,.73,2.91c.63,3.16.22,3.54-1.79,5.36-.53.48-1.14,1-1.86,1.75a14.51,14.51,0,0,1-4.42,2.86c-1.87.88-3.49,1.65-3.38,3.8.05.76.19,1.6.34,2.49.49,2.87,1.1,6.43-1.36,9.83a28.3,28.3,0,0,1-3.68,4.32,33.65,33.65,0,0,0-3.53,4,37.87,37.87,0,0,1-3.66,4c-1.55,1.52-2.67,2.62-2.89,4.38a10.53,10.53,0,0,1-.6,2.22,5.84,5.84,0,0,1,.78.83,13.22,13.22,0,0,0,.82-2.92c.18-1.41,1.14-2.36,2.6-3.79a38.22,38.22,0,0,0,3.75-4.14,32.29,32.29,0,0,1,3.44-3.9,29.18,29.18,0,0,0,3.79-4.45c2.71-3.75,2.06-7.54,1.54-10.59a21.92,21.92,0,0,1-.33-2.37c-.07-1.41.86-1.92,2.81-2.84a15.86,15.86,0,0,0,4.7-3c.7-.7,1.3-1.25,1.82-1.72,2.21-2,2.81-2.75,2.1-6.31a28.4,28.4,0,0,0-.75-3c-.3-1-.3-1,.27-2,.7-1.24,3.33-3.85,6.12-6.61,1.11-1.1,2.26-2.24,3.34-3.35,1.9-1.93,2.05-2.44,1.92-3.07,0-.15-.08-.44,1.78-2.34,1.28-1.3,1.75-2.49,1.4-3.53-.48-1.44-2.36-2.06-3.33-2.28a13.36,13.36,0,0,1,3.22-4.94c2.1-2.18,2.29-2.93,2.51-4.3a13.27,13.27,0,0,1,.57-2.34,14,14,0,0,1,2.44-4.33,33.06,33.06,0,0,0,2-2.92,7.32,7.32,0,0,1,2.28-2.33c1.13-.8,2.11-1.5,2.44-4.32.36-3.1,2.73-4,5.23-5,.75-.29,1.52-.59,2.23-.95a1.84,1.84,0,0,1,1.51-.22c.77.3,1.22,1.47,1.61,2.5a8.26,8.26,0,0,0,.61,1.39c.6,1,2.22.89,4.46.68a17.66,17.66,0,0,1,6.54.2c3.24.95,6.61-.16,7.73-1.8a1.7,1.7,0,0,0,0-2.09,49,49,0,0,1-3.92-7.48c-.07-.19-.18-.45-.32-.78a41.17,41.17,0,0,1-2.37-7.27,19.72,19.72,0,0,1-.38-3.53,14.41,14.41,0,0,0-1.06-5.45c-.92-2.36.42-3.5,2.86-5.33a23.84,23.84,0,0,0,2.84-2.39c1.15-1.2,2.57-2.45,3.94-3.66,2.15-1.89,4.18-3.68,4.94-5.09s1.08-6.57,1.37-12.64c.11-2.37.2-4.41.33-5,.18-.94.43-2,.7-3.1s.62-2.53.92-4a6,6,0,0,0-.59-3.54,6.55,6.55,0,0,1-.28-5.41c1-2.69.53-3.56-.35-4.57a3.64,3.64,0,0,1-1-2.24c-.18-1.52-.27-2.9-.37-4.37-.13-1.78-.25-3.62-.54-5.95s.11-2.64.75-3.23a5.34,5.34,0,0,0,1.6-2.49,4.51,4.51,0,0,0-.15-3.32c-.48-1.43-1.07-3.2.16-7.93,1.26-4.88.89-6,.59-7a3.21,3.21,0,0,1,.13-2.4,17.68,17.68,0,0,0-.34-10.78c-1-3.26.17-6.84,1.54-10.52l.19-.52c1.22-3.25,1.37-3.67.95-7.95s0-8.62.71-14.6A73.3,73.3,0,0,0,302.68,294Zm404.57-63.2.42-1.19c1.71-4.8,2-5.67-.46-8.4a16,16,0,0,0-4.48-3.22,9,9,0,0,1-2.85-2l-.43-.56c-1.11-1.47-1.38-1.57-4.22-1.57a28.22,28.22,0,0,1-4.69-.77c-4-.83-9-1.87-12-.74-4.31,1.6-5.38,1.65-7.86-1.48a16.6,16.6,0,0,1-1.61-2.53c-.64-1.18-1.15-2.1-2.11-2.29s-1.77.25-3.18,1.39c-3,2.39-7.56,5.22-12.58,5.22H651c-2.85-.06-4.53-1.09-6.49-2.29a26.15,26.15,0,0,0-3.65-2,12.7,12.7,0,0,1-2.86-1.74c-1.57-1.17-2.7-2-5.75-.3s-7.79.66-11.94-.28c-1.16-.26-2.25-.51-3.25-.68-2.2-.39-3.54.75-4.83,1.86-1.65,1.42-3.21,2.75-6.78,1.1-6.63-3-11.86-5.47-20.63-4.94a19,19,0,0,1-6.8-.62c-2.19-.56-3.91-1-9.56.56a41.89,41.89,0,0,1-11.5,1.68,25.19,25.19,0,0,0-6.29.71c-3.1.81-4.55,1.26-5.24,1.53-.58-1.36-2.37-4.91-5.42-4.44-3.47.55-5.42.28-7.45-1a32.36,32.36,0,0,1-4.13-3.39,4.75,4.75,0,0,0-.66.78,33.76,33.76,0,0,0,4.24,3.46c2.57,1.64,5,1.66,8.16,1.17,2.83-.44,4.49,4.23,4.5,4.28l.19.53-.46.19c0,.1.94,2.43-2.42,4a17.63,17.63,0,0,1-3.26,1.19,6.56,6.56,0,0,0-3.87,2.37,21,21,0,0,1-2.07,2,6.9,6.9,0,0,0-2.91,4.47c-.17.91-.26,1.63-.34,2.27a5.77,5.77,0,0,1-1.36,3.69c-.85,1-.79,3.67-.72,7,.08,3.68.17,7.86-.92,10.77a14.06,14.06,0,0,0-.17,10.63l.16.46a7.67,7.67,0,0,0,2.13,2.61c1.64,1.57,3.67,3.52,4.37,6.54,1.16,5,1.95,7.79,5.89,10.37a8.36,8.36,0,0,1,4,5c.24.62.51,1.32.88,2.12a11.61,11.61,0,0,0,2.3,3.31,9.36,9.36,0,0,1,2.32,3.74,21.6,21.6,0,0,0,3.27,6.07c.35.5.7,1,1,1.52l1,1.54c-2,.37-7.51,1.71-10,5.65-2.66,4.16-3.58,4.68-3.58,4.69l-1.18.33,1.08.59c.08.05,7.71,4.3,7.34,9.59A17.9,17.9,0,0,0,551.4,334a5.12,5.12,0,0,0,1.81,1.5,10.92,10.92,0,0,1,3,2.4c2.7,2.69,7.21,7.63,8.81,9.39a13.44,13.44,0,0,0-6,3.7c-1.13,1.19-2,2.23-2.8,3.14-1.4,1.65-2.33,2.73-3.47,3.19-2.14.86-2.36,2.67-2.84,6.64l0,.47c-.68,5.58,1.56,7.58,3.56,8.28a7.18,7.18,0,0,0,6.81-1.86,2.81,2.81,0,0,0,.24-3.38c-1.3-2.26-1.54-4.14-1.11-4.76a.42.42,0,0,1,.46-.17c.57.1,1.15.74,1.89,1.54a16.72,16.72,0,0,0,4,3.43,21.35,21.35,0,0,0,3,1.47,5.77,5.77,0,0,1,3.62,3,5.83,5.83,0,0,1,.75,2.61c.11,1.19.2,2.23,2.48,4a32.14,32.14,0,0,0,2.9,2c1.48.95,2.16,1.39,2.46,2.74a8.35,8.35,0,0,1,.12,2.22c-.05,1.39-.1,2.82,1.36,3.94s1.36,1.8-.06,4.24a15.38,15.38,0,0,0-.93,2c-.73,1.74-1.3,3.11-3.27,3.32a5.85,5.85,0,0,1-3-.65c-1.32-.56-2.67-1.13-4.25.33-.58.52-1.16,1-1.72,1.39-1.62,1.23-3.15,2.39-2.28,4.52a2.15,2.15,0,0,1-.88,2.57,2,2,0,0,1-2.62-.28,26.11,26.11,0,0,1-2.53-3.19c-1.6-2.22-3.42-4.73-5.69-6.16a6.84,6.84,0,0,0-4.65-1.1,3.15,3.15,0,0,1-2.52-.55,28.22,28.22,0,0,1-3.13-3.81c-3.87-5.13-6.77-8.68-8.77-7.66l-1,.49c-1.53.73-3.12,1.49-3.61,2.94a4.1,4.1,0,0,0,.54,3.25c1.6,3.06,2,7.39,2.05,8.75a37.83,37.83,0,0,0-9.77-3.32c-4-.95-8.06-1.94-11.28-4.36-.57-.42-1.13-.91-1.68-1.38-1.6-1.38-3.26-2.81-5.42-3.14l-.21,0a2,2,0,0,1-.77-.21c-.25-.17-.39-.54-.46-1.17a21.78,21.78,0,0,1,.75-6.88c.18-.83.36-1.67.51-2.5.74-4.21.16-7.44-1.73-9.6l-.07-.07c-.73-.84-1.31-1.57-1-2.07a1.61,1.61,0,0,1,.47-.4,3.08,3.08,0,0,0,.41-.3,2.51,2.51,0,0,0,.87-1.84,3.81,3.81,0,0,0-1-2.74,8.85,8.85,0,0,0-3.3-1.91l-.64-.26c-7.73-3.24-12.92-10.88-17.09-17a7.63,7.63,0,0,1-1.44-3,7.41,7.41,0,0,1,.14-2.18c.06-.38.12-.76.16-1.14a9,9,0,0,0-4.24-8.45c-.52-.3-1.07-.58-1.61-.84-1.44-.69-2.79-1.35-3.28-2.64a5.69,5.69,0,0,1-.28-1.53,8.82,8.82,0,0,0-.15-1.15c-.4-1.9-1.74-3.29-3-4.63a14,14,0,0,1-2.38-2.94,13.22,13.22,0,0,1-1.05-5.68l-.58-16.26c-.1-2.68-.21-5.71-1.59-8.3a18.45,18.45,0,0,0-1.75-2.57,19,19,0,0,1-1.52-2.18,6.32,6.32,0,0,1-.82-2.48,3.26,3.26,0,0,1,.56-2.39l-.81-.6a4.41,4.41,0,0,0-.74,3.34,7.48,7.48,0,0,0,.93,2.64,21.77,21.77,0,0,0,1.6,2.29,17.94,17.94,0,0,1,1.66,2.42c1.27,2.39,1.38,5.3,1.47,7.87l.58,16.25a13.9,13.9,0,0,0,1.17,6.12,14.45,14.45,0,0,0,2.54,3.17c1.26,1.3,2.44,2.52,2.78,4.13.07.35.1.7.14,1a6.71,6.71,0,0,0,.33,1.8c.64,1.66,2.24,2.44,3.79,3.19.51.25,1.05.51,1.52.8a8,8,0,0,1,3.76,7.48c0,.36-.09.72-.15,1.07a8.62,8.62,0,0,0-.15,2.49,8.43,8.43,0,0,0,1.62,3.44c4.24,6.25,9.52,14,17.53,17.39l.65.26a8.09,8.09,0,0,1,3,1.67,2.81,2.81,0,0,1,.76,2,1.51,1.51,0,0,1-.51,1.12l-.32.23a2.54,2.54,0,0,0-.76.68c-.78,1.19.33,2.45,1.06,3.29l.07.08c1.68,1.91,2.18,4.86,1.49,8.76-.14.82-.32,1.63-.5,2.45a23,23,0,0,0-.77,7.21,2.55,2.55,0,0,0,.9,1.89,2.8,2.8,0,0,0,1.21.38l.19,0c1.87.29,3.35,1.57,4.91,2.92.56.48,1.14,1,1.73,1.42,3.39,2.54,7.59,3.55,11.65,4.53s8,1.93,11.23,4.31l.28-.38a12.73,12.73,0,0,1,3.12,3.19,4.78,4.78,0,0,0,3.35,2.35,1.82,1.82,0,0,1,1.47.92,7.13,7.13,0,0,0,1.72,2,12.39,12.39,0,0,1,2,2.11,13.1,13.1,0,0,0,2.16,2.18c1,.89,1.67,1.43,1.61,2.58a6,6,0,0,1-3.18,4,2.86,2.86,0,0,1-2.94,0,17.45,17.45,0,0,1-2.27-1.95c-2-1.92-4.26-4.09-8.86-4.52-1.49-.14-2.61-.3-3.52-.43-2.82-.39-3.57-.5-4.55,2a4.58,4.58,0,0,0-.14,3.3,2.82,2.82,0,0,1-.16,2.33,4.71,4.71,0,0,0-.46,3.5,6.79,6.79,0,0,1,.15,1.73c-.11,1.77,1.16,2.95,2.28,4a16.76,16.76,0,0,1,1.19,1.2,4,4,0,0,0,2,1.14c.52.18,1,.35,1.11.62s.07.56-.5,1.53c-.47.8-.84,1.53-1.18,2.18-1.05,2-1.69,3.27-3.71,4-1,.35-1,.26-1.3-.38a4.3,4.3,0,0,0-3.08-2.72c-3.46-1.12-6.65-1.82-7.86,1.73a4.38,4.38,0,0,0,1.13,4.94c.21.24.42.48.62.75a2.94,2.94,0,0,0,1.25,1c.39.18.56.26-.2,2.2-.68,1.75-.8,1.77-1.46,1.85A8.22,8.22,0,0,0,512,452a13.48,13.48,0,0,0-4.06,4.23c-.6.86-1.22,1.76-1.61,1.78-.17,0-.35-.17-.49-.32a9.35,9.35,0,0,1-1.05-1.5c-.75-1.28-1.24-1.69-3.8-1.24s-3.61-.91-5.11-2.59c-.42-.46-.85-.95-1.33-1.41a6.94,6.94,0,0,1-1.86-3,26.39,26.39,0,0,0-2.36-4.7,39.69,39.69,0,0,0-5.53-7.17c-.06-.09-6.59-9-8-13.27-.27-.82-.49-1.57-.69-2.25-.91-3.06-1.5-5.08-4.62-6.07-2.47-.78-7.92.85-11.76,2.88-1.91,1-4.29,2.56-4.79,4.25a6.22,6.22,0,0,0-.06,4.25,2.75,2.75,0,0,1-2.18-.6,7.53,7.53,0,0,1-1.92-3,72.07,72.07,0,0,1-3-8.75,7.33,7.33,0,0,0-.82-2.1,6.78,6.78,0,0,0-.53-.7,4.2,4.2,0,0,1-.59-.85,4.37,4.37,0,0,1-.28-1.85v-.11a38.3,38.3,0,0,0-.78-6.92,5.73,5.73,0,0,0-.72-2,6.19,6.19,0,0,0-1.5-1.48,6.35,6.35,0,0,1-1.19-1.11,6,6,0,0,1-.81-3.26c0-.37-.06-.73-.1-1.08a15.55,15.55,0,0,0-4.4-8.67,44.78,44.78,0,0,0-7.58-6,4.16,4.16,0,0,0-2.16-.91,4,4,0,0,0-2.34.91,119.94,119.94,0,0,0-18.63,15.38,4.31,4.31,0,0,0-1.49,2.51,3.82,3.82,0,0,0,1.1,2.69q-2.52,1.86-4.94,3.86a14.59,14.59,0,0,0-2.35-9.48l-.36-.53a7,7,0,0,1-1.06-1.87,7.24,7.24,0,0,1-.25-1.59c0-.35-.06-.7-.11-1-.55-3.42-3.28-5.63-5.93-7.78-2-1.64-4.13-3.35-5.22-5.58a16.27,16.27,0,0,1-.65-1.58,12.73,12.73,0,0,0-.95-2.19c-.3-.51-.64-1-1-1.44-.92-1.29-1.7-2.4-1.35-3.8l0-.22-.13-.18c-.1-.16-.19-.33-.3-.49l.38-.26-.6-.81-.31.21a25.26,25.26,0,0,1-2.31-5.11,6.51,6.51,0,0,1-.42-2.81c.05-.32.14-.63.22-.94a6.2,6.2,0,0,0,.28-1.52c0-1.54-.95-2.73-1.89-3.87-.26-.32-.53-.64-.77-1a17.42,17.42,0,0,1-1.76-3.35,12.86,12.86,0,0,0-5.53-6.84l-8.38-6.07a21.6,21.6,0,0,1-4.78-4.26c-.37-.49-.71-1-1-1.57a9.24,9.24,0,0,0-3.25-3.6,9.11,9.11,0,0,0-3-.82,15.94,15.94,0,0,1-1.8-.35c-2.2-.64-4-2.39-5.5-3.93l-12.41-12.35a101.63,101.63,0,0,1-9.59-10.49,48.81,48.81,0,0,1-4.38-6.91l-1.08.12a51.64,51.64,0,0,0,4.65,7.4,102.81,102.81,0,0,0,9.68,10.59l12.41,12.36c1.56,1.55,3.49,3.47,5.94,4.18a16.7,16.7,0,0,0,1.92.38,6.11,6.11,0,0,1,5.58,4c.34.55.7,1.11,1.09,1.63a21.86,21.86,0,0,0,5,4.47l8.37,6.08a16.17,16.17,0,0,1,3.24,2.81,16.34,16.34,0,0,1,2,3.62,18.21,18.21,0,0,0,1.87,3.54c.25.34.52.67.8,1,.86,1,1.68,2,1.66,3.21a5.45,5.45,0,0,1-.24,1.27,8.8,8.8,0,0,0-.25,1.07,7.33,7.33,0,0,0,.46,3.26,26.6,26.6,0,0,0,2.44,5.38A69.74,69.74,0,0,1,352.15,375l-.37.07,0,.36a3.91,3.91,0,0,0,1.23,2.84,3.38,3.38,0,0,1,1,2,3.1,3.1,0,0,1-1.09,1.85,7,7,0,0,0-1.07,1.4c-1.24,2.35.47,5,1.86,6.81l8.58,11.1a12.59,12.59,0,0,1,2.34,3.9,12.34,12.34,0,0,1,.39,2.55,13,13,0,0,0,.51,3,12.66,12.66,0,0,0,2,3.29l.31.42a41.12,41.12,0,0,1,6.06,12.12l-.33.94-2.61,8a2.79,2.79,0,0,0,1,3.74l.17.15c2.71,2.3,4.2,6.3,4.09,11,0,1.23-.16,2.49-.28,3.7-.07.72-.15,1.43-.2,2.14a86.87,86.87,0,0,0,.08,10.71l.54,10.94a17.62,17.62,0,0,0,1.07,6.16c.22.5.49,1,.74,1.43a12.33,12.33,0,0,1,.88,1.79,11,11,0,0,1,.32,4.55A56.14,56.14,0,0,1,377,504l-.06.18a8.37,8.37,0,0,0-.56,4.25,8,8,0,0,0,.36,1.14,7.63,7.63,0,0,1,.31,1,7.75,7.75,0,0,1-.48,3.8l-2.29,7.76-.17,0c-.79,3.35-1.38,6.6,0,9.44.21.42.46.82.7,1.21a8.38,8.38,0,0,1,.86,1.61c.58,1.58.17,3.37-.23,5.11l-.1.46c-1.33,6-1.14,11.24.58,15.7.09.24.19.48.29.72a5.09,5.09,0,0,1-.89,6.82,6.94,6.94,0,0,0-1.94,3.63,7,7,0,0,0,.72,3.29,6.14,6.14,0,0,1,.66,2.81,5.88,5.88,0,0,1-.41,1.5l-4.31,11.88a23.79,23.79,0,0,1-1.31,3.13l-8.88-6.88-.22.69a2.85,2.85,0,0,1-2.37,1.65,10.3,10.3,0,0,1-2.89-.22l-.55-.09a31.12,31.12,0,0,0-13.53.91l-1.47.45a27.85,27.85,0,0,1-3.48.92,28.49,28.49,0,0,1-4.9.28c-2.63,0-5.36,0-7.81,1.15l-.43.21a5.21,5.21,0,0,1-1.31.51,2.24,2.24,0,0,1-1.39-.25,2.25,2.25,0,0,0,.17-1.76,3.23,3.23,0,0,0-2.32-2.25c-1.7-.38-3.36.45-4.9,1.4A75.6,75.6,0,0,0,300,595.75c-1.79,1.7-4.11,3.53-6.09,2.53a5.49,5.49,0,0,1-2.12-2.76,7.77,7.77,0,0,0-2.11-3c-1.66-1.22-3.9-.93-5.44-.61a28.22,28.22,0,0,0-8.5,3.29l-.31.19a7.23,7.23,0,0,1-2.41,1.07,6.5,6.5,0,0,1-1,.07,5.42,5.42,0,0,0-1.72.22,5.66,5.66,0,0,0-2,1.42l-.33.31a20.59,20.59,0,0,1-6.81,3.8v0l-.21-.19c-.21-.2-5.2-4.77-7.52-6.48-.93-.7-1.13-2.07-1.35-3.65-.28-1.93-.59-4.13-2.27-6a29.92,29.92,0,0,0-8.81-7.15c-3.74-2.21-5.11-2-7.59-1.64l-1.41.2c-3.17.39-4.87-1-7.46-4.2-2.32-2.89-3.18-2.65-6.8-1.64-.64.18-1.37.38-2.23.6a34.12,34.12,0,0,1-8.14,1,3.14,3.14,0,0,1-.18,1,34.92,34.92,0,0,0,8.57-1c.87-.22,1.61-.43,2.25-.61,3.55-1,3.84-1.07,5.74,1.3,2.33,2.88,4.42,5.06,8.37,4.57.53-.06,1-.14,1.44-.2,2.41-.36,3.5-.52,6.93,1.51a29.15,29.15,0,0,1,8.57,7,9.79,9.79,0,0,1,2,5.47c.24,1.74.48,3.37,1.75,4.32,2,1.49,6.26,5.33,7.24,6.23,0,0,0,0,0,.08l-.24.09.17.44c-.21,1.6-.45,5,.69,7.41.64,1.35.18,2.42-.35,3.66a6,6,0,0,0-.53,4.71,4.51,4.51,0,0,1-.22,3.59,3.11,3.11,0,0,0,0,3.22,11.46,11.46,0,0,0,3.61,3.14,19.93,19.93,0,0,1,3.93,3.13,10.42,10.42,0,0,0,1.88,1.67c.76.55.83.59.83,3.58a10,10,0,0,0,1.32,4.85c.69,1.38,1.07,2.14,0,3.42-1.65,2-1.67,5.07-1.19,7.15.16.66.62,2.26,1.54,2.66,1.14.5,1.48,2.44,1.34,3.33s-.27,10.27,4,13.06c1.93,1.26,9.85,1,19,.74,9.6-.29,21.56-.66,23.37,1.25,1.17,1.22,1.55,3.41,2,5.73.76,4.41,1.62,9.42,8.45,8.69a35.74,35.74,0,0,1,15.6,1.8c1.44.43,2.81.84,4.2,1.12,2.58.51,4.56,3.23,6.67,6.1,1.85,2.54,3.77,5.16,6.27,6.41A13.06,13.06,0,0,0,367,705c1.94.25,2.91.38,4.22,3.9a15.32,15.32,0,0,0,3.91,5.67c1.77,1.82,3.05,3.13,2.6,6.12a4.89,4.89,0,0,1-2,3.59c-1.34,1.09-1.42,1.84.68,4.69,3.19,4.36,3.67,8.63,1.43,12.7-1.7,3.1-2.1,7.32-2.39,10.4-.06.61-.11,1.16-.17,1.66-.37,3.13-.72,6.08.66,7.46a23.89,23.89,0,0,0,2.29,1.78c1.9,1.38,4.51,3.28,5.37,4.74a7.15,7.15,0,0,1,.9,2.68,19.43,19.43,0,0,0,1.92,5.71,7.77,7.77,0,0,0,3.87,3.93c.35.18.69.35.73.49s0,.28-.29.88a14.62,14.62,0,0,1-2.67,3c-1.78,1.68-3.47,3.27-3.41,4.83a2.16,2.16,0,0,0,.87,1.62c.7.57,1.52,1.12,2.3,1.67,1,.69,2.92,2,2.83,2.43,0,0-.09.28-1.29.52s-2.46.36-3.65.48c-3.1.3-5.78.57-5.7,3a16.85,16.85,0,0,0,1.12,4.8l1.19.26a17.11,17.11,0,0,1-1.3-5.09c-.05-1.37,1.7-1.61,4.79-1.92,1.16-.11,2.47-.24,3.74-.49.82-.16,1.92-.47,2.09-1.31.22-1.09-1.31-2.14-3.24-3.47-.78-.53-1.58-1.07-2.24-1.61a1.18,1.18,0,0,1-.5-.88c0-1.1,1.62-2.67,3.09-4a14.52,14.52,0,0,0,2.87-3.22,2.14,2.14,0,0,0,.36-1.66c-.17-.54-.66-.79-1.24-1.08a6.77,6.77,0,0,1-3.41-3.48,18.56,18.56,0,0,1-1.84-5.45,8.14,8.14,0,0,0-1-3c-1-1.63-3.56-3.52-5.65-5a22,22,0,0,1-2.16-1.68c-1-1-.7-3.87-.38-6.63.06-.49.12-1.06.17-1.67.29-3,.68-7.1,2.28-10,2.45-4.45,1.94-9.08-1.51-13.78-1.84-2.52-1.61-2.7-.85-3.31a5.87,5.87,0,0,0,2.32-4.23c.53-3.48-1.13-5.18-2.88-7a14.54,14.54,0,0,1-3.68-5.32c-1.46-3.91-2.8-4.26-5.05-4.55a12.15,12.15,0,0,1-4.32-1.23c-2.27-1.14-4.12-3.66-5.91-6.1-2.22-3-4.32-5.9-7.29-6.49-1.34-.27-2.68-.67-4.1-1.1a36.6,36.6,0,0,0-16-1.83c-5.88.61-6.59-3.5-7.34-7.86-.43-2.48-.84-4.82-2.22-6.26-2-2.07-10.84-2-24.13-1.56-8.25.25-16.78.51-18.44-.58-3.78-2.47-3.69-11.19-3.56-12.05.18-1.17-.2-3.66-1.93-4.41-.23-.1-.67-.71-1-2-.46-2-.34-4.71,1-6.27,1.51-1.78.84-3.11.13-4.52a9,9,0,0,1-1.21-4.4c0-3.21-.11-3.58-1.25-4.4a9.82,9.82,0,0,1-1.72-1.53,20.85,20.85,0,0,0-4.12-3.29,10.84,10.84,0,0,1-3.31-2.83c-.53-.86-.29-1.44.06-2.31a5.42,5.42,0,0,0,.25-4.29,5.09,5.09,0,0,1,.5-4c.57-1.34,1.17-2.73.34-4.49-1-2.14-.8-5.25-.62-6.77a22.53,22.53,0,0,0,7.68-4.21l.34-.33a4.77,4.77,0,0,1,1.61-1.18,4.59,4.59,0,0,1,1.41-.17,9.17,9.17,0,0,0,1.16-.08,8.13,8.13,0,0,0,2.76-1.2l.31-.19a27.06,27.06,0,0,1,8.19-3.17c1.35-.28,3.29-.55,4.63.44a6.9,6.9,0,0,1,1.8,2.61,6.38,6.38,0,0,0,2.57,3.21c2.55,1.29,5.21-.77,7.25-2.7A75.05,75.05,0,0,1,313,587c1.26-.78,2.73-1.58,4.16-1.28a2.25,2.25,0,0,1,1.56,1.55,1.2,1.2,0,0,1-.26,1.22l-.4.38.41.37a3.14,3.14,0,0,0,2.61.75,5.5,5.5,0,0,0,1.59-.59l.41-.2c2.25-1,4.74-1.06,7.39-1.06a29.63,29.63,0,0,0,5.06-.29,28.13,28.13,0,0,0,3.61-1l1.45-.44a30.31,30.31,0,0,1,13.08-.89l.55.1a10.93,10.93,0,0,0,3.19.22,4,4,0,0,0,2.9-1.71L369,590.8l1.53-.79-.46-.9c.38-.83.7-1.68,1-2.52l4.31-11.89a5.42,5.42,0,0,0-.26-5,4.49,4.49,0,0,1,1.06-5.91,8,8,0,0,0,1.91-3.26,7.77,7.77,0,0,0-.87-4.57c-.09-.24-.19-.48-.28-.71-1.64-4.28-1.82-9.37-.53-15.12l.1-.46c.43-1.88.87-3.82.19-5.67a10,10,0,0,0-1-1.81,11.27,11.27,0,0,1-.65-1.12,8.64,8.64,0,0,1-.67-4.76,24.06,24.06,0,0,0,2.71-.54,9.14,9.14,0,0,1,9.57,1.77c.57.38,1.13.76,1.71,1.11a38.4,38.4,0,0,0,4.49,2.14c2.53,1.08,4.92,2.09,6.76,3.93.55.54,1.06,1.18,1.57,1.79,1.35,1.66,2.75,3.38,4.92,3.76a9.1,9.1,0,0,0,3.81-.43,7.17,7.17,0,0,1,3.62-.35,7.25,7.25,0,0,1,1.63.76c.31.17.63.35.95.5a14.79,14.79,0,0,0,3.88,1,12.3,12.3,0,0,1,4,1.14,12,12,0,0,1,2.82,2.45c.37.39.74.78,1.13,1.15,1.25,1.2,3.2,2.55,5.33,2.15a7.5,7.5,0,0,0,2.05-.81c.32-.16.64-.33,1-.46,4-1.63,8.48,1.29,10.58,5.06.28.5.83,1.53,1.89,1.46a2,2,0,0,0,1.26-.7l5.64-5.37a4.38,4.38,0,0,1,.8,1.93,6.69,6.69,0,0,0,.79,2.1,6.25,6.25,0,0,0,2.11,1.77l5.74,3.47a10,10,0,0,0,5.25,1.91,10.2,10.2,0,0,0,1.77-.26,10.11,10.11,0,0,1,1.26-.22,7.57,7.57,0,0,1,6.19,2.83,23.51,23.51,0,0,1,3.64,6.39l.52,1.18.42-1.22a.06.06,0,0,0,0,0,2.86,2.86,0,0,1-1.27,2.57,14.82,14.82,0,0,1-1.28.83,7.91,7.91,0,0,0-2.31,1.77,8.51,8.51,0,0,0-.74,1.17,4,4,0,0,1-1.2,1.51,3.82,3.82,0,0,1-1.53.42,9,9,0,0,1-6.07-.43,12.36,12.36,0,0,0-1.45-.51c-2.89-.79-5.91.25-8.33,1.09a3.24,3.24,0,0,0-1.67,1,2.85,2.85,0,0,0-.32.59,1.82,1.82,0,0,1-.25.44,2,2,0,0,1-.65.45,3.7,3.7,0,0,0-.76.48,2.19,2.19,0,0,0-.73,1.82,3.76,3.76,0,0,0,1.59,2.74,10.5,10.5,0,0,0,2.16,1.05,9.16,9.16,0,0,1,1.87.87,9.71,9.71,0,0,1,2.35,2.57A18.78,18.78,0,0,0,465,590a16.88,16.88,0,0,0,4.65,3.08,22.19,22.19,0,0,1,3.4,2,16.21,16.21,0,0,0-4.23,4.08,6.36,6.36,0,0,0-.52,6.56,9.57,9.57,0,0,0,1.2,1.52,5.66,5.66,0,0,1,1.32,1.88,6.22,6.22,0,0,1-.08,3.05c-.25,1.37-.52,2.79.26,4a6.5,6.5,0,0,0,.48.67c.47.61.75,1,.58,1.35a1.55,1.55,0,0,1-.49.45,30.52,30.52,0,0,0-5,4.47,2.42,2.42,0,0,0-.71,1.24,2.69,2.69,0,0,0,.1,1,1.73,1.73,0,0,1,.09.64c-.06.35-.41.59-1,.94a2.59,2.59,0,0,0-1.45,1.6l-.07.36.32.18a3.64,3.64,0,0,1,1.47,2.12,7.13,7.13,0,0,1,0,.81,5.35,5.35,0,0,0,.05,1,5.47,5.47,0,0,0,1.94,2.91,12.66,12.66,0,0,1,1.08,1.14,11.21,11.21,0,0,1,.84,1.36,4.59,4.59,0,0,0,4.08,3.1,9.35,9.35,0,0,1,.92.18,6.9,6.9,0,0,1,3.07,1.88,3.87,3.87,0,0,1,1.2,1.79,2.13,2.13,0,0,1-1.77,2.46,4.81,4.81,0,0,1-2.51-.77l-.11-.05a39.64,39.64,0,0,0-6.12-2.49,9.84,9.84,0,0,0-3.73-.57l-.6.08a3,3,0,0,1-1.47,0,2.56,2.56,0,0,1-.59-.34l-.2-.14a12.39,12.39,0,0,0-2.57-1.18l-3.71-1.37a21.63,21.63,0,0,0-2.47-.81l-.24-.06a6.25,6.25,0,0,1-.74-.21,6.09,6.09,0,0,1-1-.52,34.29,34.29,0,0,1-5.28-4.16L445,636v0c.47-1.31-.13-2.67-.74-3.84l-4.46-8.63-.16-.07a11.38,11.38,0,0,1-5.69-14l.13-.34a5.55,5.55,0,0,0,.51-1.78,5.63,5.63,0,0,0-1-3.08c-.19-.35-.38-.7-.54-1.06a6,6,0,0,1-.15-4.43,9.93,9.93,0,0,1,.48-1.12,6.53,6.53,0,0,0,.8-2.69,6.78,6.78,0,0,0-.54-2.37l-.15-.4a15.32,15.32,0,0,1-.67-7.42l.06-.4-.38-.15a7.62,7.62,0,0,1-2.33-1.67c-.34-.32-.69-.63-1.05-.92-5.07-4-12.36-2-16.26-.43-3.61,1.45-5.86,1.42-6.88-.07a5.5,5.5,0,0,1-.65-1.72,5.14,5.14,0,0,0-1.05-2.36,5.2,5.2,0,0,0-1.51-1,5.44,5.44,0,0,1-1.05-.64c-1.33-1.12-1.13-3.34-.88-4.55.06-.34.14-.67.22-1a9.4,9.4,0,0,0,.26-4.56,9,9,0,0,0-1.36-2.61,8.88,8.88,0,0,1-1.18-2.2c-.64-2,.3-4,1.29-6.15a14.7,14.7,0,0,0,1.65-5,13.69,13.69,0,0,0-.78-4.84c-.15-.51-.3-1-.43-1.55-.42-1.72-.64-4.09.73-5.6l-.75-.67c-1.66,1.83-1.44,4.55-1,6.51.13.53.28,1.06.44,1.59a12.72,12.72,0,0,1,.74,4.48,14.09,14.09,0,0,1-1.56,4.66c-1,2.21-2.09,4.49-1.34,6.88a10.17,10.17,0,0,0,1.31,2.46,8.23,8.23,0,0,1,1.22,2.32,8.4,8.4,0,0,1-.27,4.07c-.08.34-.16.69-.22,1-.5,2.48-.06,4.44,1.22,5.53a7,7,0,0,0,1.24.76,3.09,3.09,0,0,1,2.05,2.74,6.09,6.09,0,0,0,.79,2c2,2.89,6.57,1,8.08.43,3.7-1.48,10.6-3.42,15.26.29.34.28.67.58,1,.88a9.77,9.77,0,0,0,2.27,1.7,16.33,16.33,0,0,0,.78,7.53l.15.41a5.83,5.83,0,0,1,.48,2,5.7,5.7,0,0,1-.71,2.27c-.18.4-.37.8-.52,1.21a7.08,7.08,0,0,0,.19,5.18c.16.38.37.76.57,1.14a4.74,4.74,0,0,1,.86,2.53,5,5,0,0,1-.43,1.46l-.14.35a12.45,12.45,0,0,0,6.05,15.18l4.31,8.32c.53,1,1,2.1.68,3-.54,1.48-2.74,1.6-4.5,1.44l-11.35-1c-3.33-.3-7.1-.65-10.17-2.41-.49-.28-1-.59-1.43-.9a11.5,11.5,0,0,0-3.52-1.8c-3-.77-6,.8-8.6,2.5a11,11,0,0,1-.37-4l.08-.91-.82.42a1.33,1.33,0,0,1-1.12,0,5.36,5.36,0,0,1-2.37-3c-.87-2.37-2.56-4.62-4.71-3.85l-.72.27.53.56c1.41,1.47,1.42,3.85,1.24,6-.57,6.8-1.27,11.42-3.27,17a10.05,10.05,0,0,0-3.11-2.55,4.38,4.38,0,0,0-1.38-.48,4.84,4.84,0,0,0-1.79.14c-.26.05-.52.1-.78.13-2.75.32-5.09-1.92-7.08-4a7.33,7.33,0,0,0-2.19-1.75,7,7,0,0,0-2.14-.47,9.52,9.52,0,0,1-1.35-.21,4.31,4.31,0,0,1-3-3.21c-.05-.22-.08-.45-.11-.68a8,8,0,0,0-.17-1,7.56,7.56,0,0,0-2.71-3.55A10,10,0,0,1,365,626a2.32,2.32,0,0,1-.38-1.16,3.43,3.43,0,0,1,.94-1.95l3.41-4.49c1-1.35,2.27-3.35,1.33-5.13a5.25,5.25,0,0,0-.38-.58c-.09-.13-.19-.27-.27-.41-.56-1-.22-2.18.15-3.45a13.33,13.33,0,0,0,.46-2,10.89,10.89,0,0,0-.75-4.46,12.18,12.18,0,0,1-.76-3.56,2.06,2.06,0,0,0-.59-1.75,1.91,1.91,0,0,0-.67-.31l-.27-.1a.69.69,0,0,1-.39-.53,2.44,2.44,0,0,1,.62-1.86c.19-.21.39-.42.6-.62a4.4,4.4,0,0,0,1.61-2.64l-1-.08a3.55,3.55,0,0,1-1.32,2c-.22.22-.44.44-.64.67a3.44,3.44,0,0,0-.85,2.73,1.7,1.7,0,0,0,.94,1.24,2.86,2.86,0,0,0,.41.15,1.3,1.3,0,0,1,.35.15c.19.15.2.58.2,1v.1a13.35,13.35,0,0,0,.8,3.76,9.9,9.9,0,0,1,.71,4,11.15,11.15,0,0,1-.43,1.87c-.4,1.41-.82,2.88-.05,4.22a4.52,4.52,0,0,0,.34.51c.1.15.21.3.3.46.67,1.27-.39,2.92-1.25,4l-3.41,4.49a4.4,4.4,0,0,0-1.14,2.56,3.27,3.27,0,0,0,.52,1.68,11.12,11.12,0,0,0,2.28,2.46,6.72,6.72,0,0,1,2.39,3,8.41,8.41,0,0,1,.15.85c0,.26.07.51.12.76a5.33,5.33,0,0,0,3.77,4,10,10,0,0,0,1.5.25,4.47,4.47,0,0,1,3.7,1.91c2.32,2.45,4.9,4.68,7.93,4.33a8.74,8.74,0,0,0,.87-.14,4.31,4.31,0,0,1,1.45-.13,3.35,3.35,0,0,1,1.05.38,9.11,9.11,0,0,1,4,4.11c.73,1.5.48,2.6.14,4.13-.06.26-.12.53-.17.81a24.05,24.05,0,0,1-5.56,11.13l-.2.21a6.06,6.06,0,0,0-1.84,3.2,5.8,5.8,0,0,0,.38,2.39,6,6,0,0,1,.37,1.69c0,1.63-1.26,2.84-2.63,4.12a19.23,19.23,0,0,0-1.73,1.77c-2.5,3.06-2.42,7.22-2.35,11.25.08,4.22.16,8.2-2.56,10.83l-.38.35a4.19,4.19,0,0,0-1.44,2,2.33,2.33,0,0,0,.65,2.24,4.09,4.09,0,0,0,3.69,1.06,10.55,10.55,0,0,0,2.9-1.3,12.07,12.07,0,0,1,2.13-1.06c2.73-.95,5.68.16,8.73,1.48l9.16,4c1.31.57,2.83,1.12,4.21.51a5.62,5.62,0,0,0,.73-.43,4,4,0,0,1,.52-.32,5.13,5.13,0,0,1,3-.15l12.37,1.74c8.17,1.15,16.62,2.34,24.62,4.86,2.57.81,5.14,1.84,6.65,3.9,2.14,2.93,1.4,6.92.76,9a43.53,43.53,0,0,1-1.53,4.13,36,36,0,0,0-1.83,5.17c-1.33,5.32-.28,10.95.65,15.92l4.62,24.88a48.2,48.2,0,0,1,.81,19.18c-.17,1.47-.35,3-.46,4.48-.67,8.4.46,16.83,1.73,25,.35.15.71.29,1.09.41-1.29-8.31-2.48-16.87-1.82-25.36.12-1.48.29-3,.46-4.44a63.71,63.71,0,0,0,.61-8.21,66,66,0,0,0-1.42-11.28l-4.63-24.87c-.91-4.87-1.93-10.39-.66-15.5a35.77,35.77,0,0,1,1.78-5,44.13,44.13,0,0,0,1.57-4.22c.69-2.3,1.48-6.65-.92-9.93-1.67-2.29-4.43-3.4-7.15-4.26-8.08-2.55-16.58-3.74-24.79-4.9l-12.36-1.74a6.08,6.08,0,0,0-3.57.25,6.34,6.34,0,0,0-.62.37,4.07,4.07,0,0,1-.6.35c-1,.45-2.22,0-3.39-.51l-9.16-4c-3.11-1.34-6.39-2.57-9.46-1.51a13.32,13.32,0,0,0-2.3,1.14,9.67,9.67,0,0,1-2.63,1.2,3.15,3.15,0,0,1-2.73-.78,1.31,1.31,0,0,1-.4-1.29,3.38,3.38,0,0,1,1.14-1.45l.4-.37c3-2.94,2.95-7.33,2.87-11.58-.07-3.84-.15-7.81,2.12-10.59a19.78,19.78,0,0,1,1.64-1.67c1.47-1.38,3-2.8,3-4.88a7.2,7.2,0,0,0-.41-2,4.91,4.91,0,0,1-.35-2,5.22,5.22,0,0,1,1.6-2.63l.19-.22a25,25,0,0,0,5.8-11.6c.05-.27.11-.54.17-.79a6.51,6.51,0,0,0-.22-4.79c-.17-.35-.37-.69-.57-1,2.21-5.93,3-10.89,3.55-17.9.18-2,.18-4.28-.91-6,1.48.32,2.5,3,2.63,3.3a6.24,6.24,0,0,0,2.95,3.6,2.34,2.34,0,0,0,1.16.15,12.16,12.16,0,0,0,.68,4.35l.21.61.54-.36c2.67-1.78,5.52-3.46,8.35-2.74a10.84,10.84,0,0,1,3.21,1.67c.49.32,1,.65,1.49.94,3.26,1.87,7.15,2.22,10.58,2.54l11.35,1c3.57.32,4.93-.78,5.44-1.87a35.4,35.4,0,0,0,5.38,4.23,6.6,6.6,0,0,0,1.15.61,6.5,6.5,0,0,0,.86.25l.24.06a23.43,23.43,0,0,1,2.37.78l3.7,1.37a11.81,11.81,0,0,1,2.37,1.08l.18.12a3.64,3.64,0,0,0,.8.46,4,4,0,0,0,2,.07,5,5,0,0,1,.54-.07,8.5,8.5,0,0,1,3.34.53,38.55,38.55,0,0,1,6,2.42l.11,0a6.25,6.25,0,0,0,2.76.89H477a3,3,0,0,0,2.12-1.28l0-.05a8.19,8.19,0,0,0,8-.6c.46-.32.9-.69,1.33-1.05,1.06-.88,2.06-1.72,3.26-1.72h0c1.38,0,2.44,1.1,3.56,2.26s2.37,2.45,4.07,2.6c2,.17,3.65-1.28,5.12-2.88a2.94,2.94,0,0,0,.71-1c.37-1.14-.43-2-1.13-2.77a6.11,6.11,0,0,1-.82-1,4.22,4.22,0,0,1-.16-2.92,17.3,17.3,0,0,1,3.52-7.24,1.91,1.91,0,0,1,.95-.74c.47-.08,1,.31,1.49.69l.09.07a12.18,12.18,0,0,0,12.14,1.28l.45-.21c1.07-.52,2.17-1,3.08-.63a3.53,3.53,0,0,1,1.06,1c.84,1,1.67,1.94,2.49,2.92,2.15,2.55,4.09,5.09,4.34,8.09,0,.22,0,.44,0,.66a6.46,6.46,0,0,0,.26,1.88,6.75,6.75,0,0,0,1.26,2c3,3.75,6.25,7.46,9.51,11a8.42,8.42,0,0,0,2.33,2,8.17,8.17,0,0,0,2.58.62l.36,0a24.09,24.09,0,0,1,10.8,4.3c.4.29.78.59,1.17.88a2,2,0,0,1-.42.06,1.78,1.78,0,0,1-1.48-.53l-.74.69.71.75a4.13,4.13,0,0,1,1,2.78,11,11,0,0,1-.22,1.44,13.13,13.13,0,0,0-.24,1.7,12.44,12.44,0,0,0,.83,4.3,8.89,8.89,0,0,1,.66,4.64c-.47,2.11-2.46,3.45-4.15,4a18.72,18.72,0,0,1-6.34.51l-1.14,0,.74.87a7.07,7.07,0,0,1,1.4,4.91,24.22,24.22,0,0,1-.58,3.88c-.1.53-.21,1.06-.3,1.58a57.52,57.52,0,0,0-.64,10.13,8.21,8.21,0,0,0,.83,4.28,3.68,3.68,0,0,0,2.26,1.62,2.83,2.83,0,0,0,1,0,7.76,7.76,0,0,0,1.18,3.87c.68,1.34,1.32,2.6,1.07,3.86a6.32,6.32,0,0,1-.34,1,7.1,7.1,0,0,0-.39,1.18c-.42,2.1.94,3.75,2.26,5.34a9.3,9.3,0,0,1,2.2,3.61,8.27,8.27,0,0,1-.62,4.27l-1.44,4.39c-.5,1.52-.83,3.09.06,4.31a4.65,4.65,0,0,0,1.06,1l.37.28a11.18,11.18,0,0,1,2.59,3.67l.13.26a9.8,9.8,0,0,0,3.28,4.07,4.41,4.41,0,0,0,2.75.43,2.61,2.61,0,0,1,1.5.13c.81.48,1.68,2.19,2.32,3.44.23.45.44.85.62,1.15a6.43,6.43,0,0,1,.79,1.77,6.36,6.36,0,0,1,.1,1.53c0,.4,0,.8,0,1.2a10.44,10.44,0,0,0,1.11,3.37,2.15,2.15,0,0,1-.27,2.93,5.51,5.51,0,0,0-.76,1.23c-.59,1.46,0,3,.9,4.39a9.08,9.08,0,0,0-2.64,2.43,3.82,3.82,0,0,0-.17,4.23,5.75,5.75,0,0,0,1.6,1.39c.75.51,1.4.94,1.48,1.63a2.87,2.87,0,0,1-.2,1.11,4.2,4.2,0,0,0-.26,1.34,4,4,0,0,0,1.06,2.29,5.57,5.57,0,0,1,.75,1.16,5.51,5.51,0,0,1,.1,2.71l-.61,4.58,1,.26.62-4.71a6.29,6.29,0,0,0-.17-3.23,7,7,0,0,0-.87-1.38,3.28,3.28,0,0,1-.86-1.71,3.65,3.65,0,0,1,.21-1,3.43,3.43,0,0,0,.24-1.52,3.55,3.55,0,0,0-1.91-2.36,5,5,0,0,1-1.35-1.14,2.88,2.88,0,0,1,.19-3.09,9.49,9.49,0,0,1,2.76-2.42l.41-.27-.26-.42c-.84-1.32-1.55-2.7-1.07-3.88a4.29,4.29,0,0,1,.63-1,3.79,3.79,0,0,0,.91-1.86,4.09,4.09,0,0,0-.53-2.1,9.38,9.38,0,0,1-1-3,7.79,7.79,0,0,1,0-1.08,8.08,8.08,0,0,0-.13-1.76,7.26,7.26,0,0,0-.91-2c-.17-.3-.37-.68-.59-1.11-.73-1.43-1.64-3.22-2.7-3.85a3.39,3.39,0,0,0-2.09-.27,3.45,3.45,0,0,1-2.16-.29,9.07,9.07,0,0,1-2.91-3.67L563,751a11.91,11.91,0,0,0-2.85-4l-.4-.31A3.84,3.84,0,0,1,559,746c-.63-.86-.33-2.14.08-3.4l1.44-4.39a9.26,9.26,0,0,0,.65-4.81,10.19,10.19,0,0,0-2.41-4c-1.22-1.48-2.38-2.87-2.05-4.5a6.32,6.32,0,0,1,.34-1,6.92,6.92,0,0,0,.39-1.19c.32-1.6-.43-3.08-1.15-4.51s-1.4-2.75-.94-4l.5-1.43-1.26.85a1.56,1.56,0,0,1-1.21.18,2.61,2.61,0,0,1-1.61-1.15,7.11,7.11,0,0,1-.69-3.76,57.14,57.14,0,0,1,.62-9.95l.3-1.56a25.55,25.55,0,0,0,.6-4,8.69,8.69,0,0,0-1-4.75,17.08,17.08,0,0,0,5.66-.59c2-.63,4.26-2.21,4.83-4.74a9.76,9.76,0,0,0-.69-5.17,11.55,11.55,0,0,1-.78-4,12.56,12.56,0,0,1,.22-1.55,13.18,13.18,0,0,0,.24-1.57,5.09,5.09,0,0,0-.68-2.73h.27a5.25,5.25,0,0,0,3.66-2.12,16.31,16.31,0,0,0,1.29-2.25,7.58,7.58,0,0,1,5.69-4.83,12.26,12.26,0,0,0,3.9-1.93c.12-.09.23-.19.34-.29a2.58,2.58,0,0,1,1.25-.77,2.49,2.49,0,0,1,1.5.55,7,7,0,0,0,.89.49,6.82,6.82,0,0,0,2.86.38,6,6,0,0,1,2.46.3c1.12.5,1.77,1.69,2.46,2.95.81,1.48,1.65,3,3.33,3.45,1.49.41,2.84-.25,4.14-.89a8.27,8.27,0,0,1,2.61-.93,7.71,7.71,0,0,1,2.74.39l12.91,3.45a24.41,24.41,0,0,1,4.32,1.46l.47.23a6.71,6.71,0,0,0,2.1.79,2.88,2.88,0,0,0,2.09-.51,10.75,10.75,0,0,0,1.88,2.57,10.72,10.72,0,0,1,1.72,2.29,10.32,10.32,0,0,1,.77,3.23c.34,2.64.73,5.64,0,8.35-.13.47-.29.92-.45,1.38a14.44,14.44,0,0,0-.67,2.38,4.26,4.26,0,0,0,1.2,4l.37.31.33-.36a3.26,3.26,0,0,1,2.87-.81,10.54,10.54,0,0,1,3.18,1.25l2.62,1.36a1.56,1.56,0,0,1,.63.46,1.71,1.71,0,0,1,.08,1.1l0,.24a6.35,6.35,0,0,0,3.11,6c.09-.33.2-.67.31-1a5.42,5.42,0,0,1-2.42-4.9l0-.23a2.6,2.6,0,0,0-.24-1.77,2.46,2.46,0,0,0-1-.79l-2.61-1.37a11.69,11.69,0,0,0-3.5-1.35,4.37,4.37,0,0,0-3.38.77,3.71,3.71,0,0,1-.54-2.78,12.36,12.36,0,0,1,.63-2.2c.16-.48.33-1,.46-1.46.8-2.9.4-6,0-8.74a11.06,11.06,0,0,0-.86-3.54,11.48,11.48,0,0,0-1.88-2.53,7.44,7.44,0,0,1-2-3l-.39-1.6-.58,1.54a1.52,1.52,0,0,1-1.64.73,6,6,0,0,1-1.79-.69l-.48-.24a25.1,25.1,0,0,0-4.5-1.52L600,661.71a8.41,8.41,0,0,0-3.11-.43,9.06,9.06,0,0,0-2.94,1c-1.19.57-2.31,1.12-3.44.82s-2-1.62-2.7-3-1.51-2.75-2.94-3.39a6.65,6.65,0,0,0-2.89-.39,5.84,5.84,0,0,1-2.43-.3,6.55,6.55,0,0,1-.78-.42,3.33,3.33,0,0,0-2.14-.69,2.75,2.75,0,0,0-1.42.69l1.45-2.34-.86-.54-2.14,3.45c-2.39-.13-4.64-1.42-6.63-2.56-1.45-.83-3.37-2.13-3.23-3.84a4.66,4.66,0,0,1,.29-1.14l.11-.35a19,19,0,0,0,.39-7.18c-.08-1.06-.61-1.73-1.33-1.69a1.53,1.53,0,0,0-.89.43l-.11.09c-.82.64-2.09.44-3.22.21l-6.55-1.35a2.8,2.8,0,0,1-1.22-.44,2.86,2.86,0,0,1-.66-1l-1.9-3.95a3.21,3.21,0,0,1-.46-1.59,3.35,3.35,0,0,1,.91-1.67l.13-.15a8.87,8.87,0,0,0,1.89-3.72,4.84,4.84,0,0,0-.67-3.66,11.74,11.74,0,0,0,3.39-3.12,3.18,3.18,0,0,0,.65-1.37,3.56,3.56,0,0,0-.13-1.4,3.32,3.32,0,0,1-.13-.7c-.11-1.39,1.13-2.41,2.45-3.49.32-.26.64-.52.93-.78a1.55,1.55,0,0,0,.63-1.15c0-.82-.81-1.15-1.33-1.36l-.19-.08a2.31,2.31,0,0,1-1.08-3c.08-.15.17-.29.26-.44a3.41,3.41,0,0,0,.5-1c.37-1.28-.49-2.33-1.26-3.26s-1.28-1.55-1.11-2.33a2.81,2.81,0,0,1,.45-.9l.14-.21a8.2,8.2,0,0,0,1.17-5l.06,0,7.8-4.68a5.07,5.07,0,0,0,1.77-1.47,5.14,5.14,0,0,0,.65-2.4l0-.43a5.43,5.43,0,0,1,2.59-4.4,3,3,0,0,1,2.7.19,2,2,0,0,1,1,1.55l0,1.38.85-1.09c1.53-1.94,2.88-2.73,4-2.34a4.26,4.26,0,0,1,1.88,1.9,5,5,0,0,0,2.42,2.31l.24.08.21-.14a5.8,5.8,0,0,0,1.88-3.39c.08-.27.15-.54.23-.8.42-1.28,1.44-2.51,2.51-2.26a3.13,3.13,0,0,1,1.48,1.24c3.95,4.91,7.65,9.12,12.88,10.92a4.63,4.63,0,0,0,2.65.28c2.28-.58,2.87-3.5,3.16-4.9a59.6,59.6,0,0,1,6.3-17.14l.27-.49-.52-.22a19.29,19.29,0,0,1-9.27-8.23,3.7,3.7,0,0,1-.57-1.54,4.31,4.31,0,0,1,.66-2L609,545l-.4-.25a2.67,2.67,0,0,1-.33-4l-.36-.41a10.86,10.86,0,0,0,2,.47,3.86,3.86,0,0,0,3.32-.78c.59-.42.75-.54,1.63.32a14.81,14.81,0,0,1,1.81,2.33c1.22,1.8,2.48,3.66,4.77,2.88,1.83-.62,2.17-.4,3.19.23a15.7,15.7,0,0,0,1.66.92,9.13,9.13,0,0,1,3,2.1,18.36,18.36,0,0,0,1.6,1.44c1.5,1.22,4,3.7,5.18,4.88.09-.35.19-.73.3-1.13-1.76-1.82-4.81-4.5-4.85-4.54A18,18,0,0,1,630,548a9.88,9.88,0,0,0-3.28-2.3,12.58,12.58,0,0,1-1.55-.86c-1.2-.74-1.88-1.06-4.05-.32-1.5.51-2.3-.56-3.61-2.49a15.43,15.43,0,0,0-1.94-2.49c-1.39-1.35-2.09-1-2.93-.42a2.9,2.9,0,0,1-2.56.61c-2.08-.36-2.28-.58-2.87-1.25a11,11,0,0,0-1.68-1.62,15.31,15.31,0,0,1-1.77-1.72c-1.29-1.42-2.4-2.64-4.94-1.91l-.66.19c-1.51.44-1.51.44-2.08-.05a12.46,12.46,0,0,0-1.15-.91,6.49,6.49,0,0,0-2.72-1.09,10.21,10.21,0,0,1-4.81-2.31c-2.27-1.77-3.27-1.46-4.09-1-.32.19-.42.24-1.1-.67-2.28-3.06-5.24-2.64-9-1.06-3.42,1.44-7.5-.85-10.33-3-1.83-1.42-3.44-.83-5.66,0a25.68,25.68,0,0,1-6.65,1.65c-3.84.37-4.54-.78-5.43-2.23a5.52,5.52,0,0,0-3.22-2.83c-2.57-.83-3.21-.49-3.72.89a3.66,3.66,0,0,1-1.38,1.94c-2.25,1.67-3.34.7-5-.78l-.16-.14a29.73,29.73,0,0,1-3.57-4.32c-.48-.64-1-1.34-1.55-2.06l.26-.42a1,1,0,0,0-.37-.13c.37-2.25,1.85-4.3,3.06-6l2.76-3.84a7.36,7.36,0,0,1,1.17-1.37,5.4,5.4,0,0,1,4-.91,21.5,21.5,0,0,1,2.27.38c.73.15,1.48.3,2.24.39a4.62,4.62,0,0,0,2.34-.24,5.44,5.44,0,0,0,2.38-2.8l.22-.43a29,29,0,0,1,4.12-5.4c2-2.19,4-4.46,5-7.35.19-.56.42-1.2.85-1.34a1.46,1.46,0,0,1,1,.14,7.67,7.67,0,0,1,4,3.79c.07.16.15.33.22.5a5.46,5.46,0,0,0,.91,1.6,1.93,1.93,0,0,0,3.5-.53,6,6,0,0,0-.47-4c-.44-1.26-.86-2.45-.37-3.47l.18-.35c.34-.63.81-1.49.19-2.2a1.69,1.69,0,0,0-1-.5,10.79,10.79,0,0,0-2.89-.08,8.27,8.27,0,0,1-3-.17,6.22,6.22,0,0,1-2.55-1.78c-.49-.51-2-2.32-1.36-3.86a4.12,4.12,0,0,1,.65-1,7.27,7.27,0,0,0,.61-.82,2.09,2.09,0,0,0-.23-2.72,2.56,2.56,0,0,0-.91-.39l-.3-.08a4.2,4.2,0,0,1-1.4-1l-.49-.42a7.76,7.76,0,0,0-4.39-1.75h-.1c-1-.06-1.7-.15-1.87-.64a1.76,1.76,0,0,1,.21-1.08l.12-.33A4.25,4.25,0,0,0,546,460a23.73,23.73,0,0,0-2.32-1.85c-.26-.18-.52-.34-.79-.5a9,9,0,0,1-3.7-4c-1.5-2.6-2.27-3.06-3.33-3.68a12.13,12.13,0,0,1-1.38-.92c-1.54-1.19-3.7-7.11-4.41-9.3l-.34.11a21.73,21.73,0,0,0,1.14-2c.33-.64.7-1.35,1.15-2.13a2.88,2.88,0,0,0,.58-2.39c-.27-.72-1-1-1.73-1.23a3.36,3.36,0,0,1-1.54-.82,14.18,14.18,0,0,0-1.27-1.3c-1-1-2-1.9-2-3.19a7.11,7.11,0,0,0-.16-2,3.68,3.68,0,0,1,.38-2.86,3.82,3.82,0,0,0,.22-3,3.66,3.66,0,0,1,.11-2.67c.69-1.73.68-1.73,3.47-1.34.91.13,2,.3,3.56.44,4.25.39,6.29,2.35,8.26,4.24a17.78,17.78,0,0,0,2.41,2.06,3.84,3.84,0,0,0,3.95.08c1.93-1,3.64-3.19,3.73-4.86s-.85-2.47-2-3.41a12.36,12.36,0,0,1-2-2,13.46,13.46,0,0,0-2.13-2.26,6,6,0,0,1-1.51-1.75,2.82,2.82,0,0,0-2.12-1.39,3.82,3.82,0,0,1-2.74-1.93,12.35,12.35,0,0,0-4.44-4.1c-.05-1.26-.39-5.94-2.17-9.33a3.19,3.19,0,0,1-.47-2.46c.35-1,1.68-1.68,3.09-2.34.34-.17.69-.33,1-.51,1.4-.71,5.22,4.35,7.5,7.37a27.44,27.44,0,0,0,3.31,4,4.17,4.17,0,0,0,3.22.77,5.81,5.81,0,0,1,4,.94c2.11,1.33,3.86,3.76,5.41,5.9a26,26,0,0,0,2.64,3.32,3,3,0,0,0,3.89.39,3.12,3.12,0,0,0,1.25-3.78c-.55-1.36.25-2,2-3.33.55-.42,1.18-.9,1.79-1.46,1.11-1,1.93-.67,3.17-.14a6.73,6.73,0,0,0,3.5.72c2.58-.27,3.35-2.13,4.1-3.93a14.29,14.29,0,0,1,.87-1.86c1.26-2.17,2.18-3.74-.19-5.56-1-.8-1-1.76-1-3.09a9.28,9.28,0,0,0-.14-2.48c-.39-1.76-1.34-2.37-2.91-3.37-.75-.48-1.68-1.07-2.82-1.95-1.93-1.5-2-2.21-2.09-3.29a7,7,0,0,0-.87-3,6.74,6.74,0,0,0-4.12-3.43,20.19,20.19,0,0,1-2.9-1.41,15.52,15.52,0,0,1-3.77-3.24c-.88-.95-1.56-1.7-2.47-1.85a1.39,1.39,0,0,0-1.46.58c-.76,1.1-.34,3.4,1.07,5.84a1.8,1.8,0,0,1-.14,2.23,6.24,6.24,0,0,1-5.71,1.56c-2.39-.84-3.37-3.26-2.89-7.2l.06-.48c.48-4,.69-5.22,2.21-5.82s2.41-1.78,3.86-3.47c.77-.91,1.65-1.94,2.76-3.1a11.71,11.71,0,0,1,6.28-3.59l1-.11-.66-.73c-.06-.06-6.11-6.75-9.43-10.08a11.52,11.52,0,0,0-3.24-2.58,4.28,4.28,0,0,1-1.51-1.26,16.9,16.9,0,0,1-3.88-11.89c.34-5-5.27-8.94-7.22-10.15a26.68,26.68,0,0,0,3.4-4.57c2.81-4.38,10-5.31,10.09-5.31l.8-.1-1.86-2.87c-.35-.54-.71-1.05-1.07-1.55a20.7,20.7,0,0,1-3.13-5.82,11.2,11.2,0,0,0-.55-1.32l.06,0c1.53-1.93,1.66-4.49,1.67-7.16v-1.3a14.29,14.29,0,0,0-.07-1.84,5.19,5.19,0,0,1,3.7.08,5.76,5.76,0,0,1,1.47,1.34,8.38,8.38,0,0,0,1.34,1.32,8.24,8.24,0,0,0,1.49.79l.21.1c3.95,1.79,7.37,4.61,10.68,7.34.36.3.75.65.75,1s-.34.66-.69,1a74.83,74.83,0,0,0-8.28,8.79,2.38,2.38,0,0,0-.68,2,2.42,2.42,0,0,0,.39.77l.15.21a4,4,0,0,1,.4,1.56,8.49,8.49,0,0,0,.16,1,8.91,8.91,0,0,0,2.46,3.82,22.8,22.8,0,0,0,4.27,3.86c.62.39,1.27.73,1.91,1a18,18,0,0,1,2.2,1.25A17.25,17.25,0,0,1,574.7,319c.59.6,1.19,1.22,1.86,1.78a2.38,2.38,0,0,0,1.47.68,1.34,1.34,0,0,0,.52-.1l-.41.87a4.06,4.06,0,0,1,1.56,1.05,1,1,0,0,1,.06,1.28l-.12.1a1.64,1.64,0,0,0-.38.37c-.38.57-.18,1.33.53,2a8,8,0,0,0,4.52,2.08l.39,0a4.9,4.9,0,0,1,1,.18,4.29,4.29,0,0,1,1,.56l.35.24a7.58,7.58,0,0,0,3.74,1.22H591a2.84,2.84,0,0,1,.61.07,2.92,2.92,0,0,1,1.06.76l.46.44.5.38a3.12,3.12,0,0,1,.85.8,2.29,2.29,0,0,1-.13,2.14,10.47,10.47,0,0,1-.6,1,10.29,10.29,0,0,0-.76,1.39,3,3,0,0,0,.24,3.12,4.19,4.19,0,0,0,.48.46c.25.21.47.39.5.59a1.35,1.35,0,0,1-.25.72l-1.46,2.64a5.06,5.06,0,0,0-.63,1.5,4.83,4.83,0,0,0,.53,2.74c.67,1.64,1.58,2.46,2.63,2.38a3.14,3.14,0,0,0,1.46-.6c.18-.11.36-.23.54-.32,1.32-.61,2.94.24,4.35,1.15l4.51,2.93a3.79,3.79,0,0,0,1.72.73,1.78,1.78,0,0,0,1.67-.79,3,3,0,0,1,2.82,1.43,3.13,3.13,0,0,1,.16.6,2.36,2.36,0,0,0,.69,1.41,2.4,2.4,0,0,0,1.2.45l.38.07a4.28,4.28,0,0,1,2,1.71c.27.34.54.68.83,1a6.47,6.47,0,0,0,5.22,1.9,12.85,12.85,0,0,0,1.45-.27,10.56,10.56,0,0,1,1.5-.27,4.82,4.82,0,0,1,4.71,3c0,.12.08.23.11.34a5.27,5.27,0,0,0,.35.87,4.29,4.29,0,0,0,3.07,1.93l.46.09.13-.45a4.07,4.07,0,0,1,3.18-2.79,4.23,4.23,0,0,0,0,2,2.31,2.31,0,0,0,1.85,1.68,21.54,21.54,0,0,1,.22,4l0,.24a7.58,7.58,0,0,0,.06,1.71,5.16,5.16,0,0,0,.93,2,7,7,0,0,0,.52.67.52.52,0,0,0-.12.17l0,.21a5.54,5.54,0,0,0-1.9,1.63,4.79,4.79,0,0,1-1.54,1.36,5.16,5.16,0,0,1-1.6.32,4.05,4.05,0,0,0-2.54.83,4.6,4.6,0,0,0-.91,1.38c-.28.56-.51,1.05-.95,1.21a2.25,2.25,0,0,1-1.12,0c-.22,0-.44-.08-.66-.1a2.11,2.11,0,0,0-1.63.57,1.22,1.22,0,0,0-.36,1c.11,1,1.27,1.3,1.84,1.44a1.3,1.3,0,0,1,.77.46.09.09,0,0,1,0,.1c0,.08-.15.19-.2.24a5.09,5.09,0,0,1-3.38,1.23h-.28l-.15.23a18.39,18.39,0,0,1-1.17,1.54,17.32,17.32,0,0,0-1.63,2.29l-.17.32,0,.06a32,32,0,0,1-3.94-1.52c-2.18-.95-4.43-1.94-6.42-2-.5,0-1.42,0-1.52-.43a1.52,1.52,0,0,1,0-.45,1.72,1.72,0,0,0,0-1.05,1.75,1.75,0,0,0-.62-.71,38,38,0,0,1-4.89-4.51l-.47-.52-.34.61a26.75,26.75,0,0,1-4.55,5.92c-1.45,1.43-1.11,2.36-.78,2.79a1.37,1.37,0,0,0,.16.18l.1.11s0,.08,0,.28a3.57,3.57,0,0,1-4,2.85l-.29-.07a2.39,2.39,0,0,0-1.74.07,2.26,2.26,0,0,0-.64.63c-.14.18-.26.38-.39.57a5.42,5.42,0,0,1-.89,1.13,1.33,1.33,0,0,1-1.46.31,1.83,1.83,0,0,1-.4-.39,4.21,4.21,0,0,0-.36-.37,1.36,1.36,0,0,0-1.7-.21,1.55,1.55,0,0,0-.47.69,2,2,0,0,1-.91,1.06.45.45,0,0,1-.36,0,1.73,1.73,0,0,1-.41-.33,14.72,14.72,0,0,0-4.18-2.9l-.43.92a13.91,13.91,0,0,1,3.93,2.72,2.31,2.31,0,0,0,.68.52,1.47,1.47,0,0,0,.58.12,1.55,1.55,0,0,0,.56-.11,3,3,0,0,0,1.48-1.62,1.1,1.1,0,0,1,.14-.27.5.5,0,0,1,.41.16,3.83,3.83,0,0,1,.28.29,2.59,2.59,0,0,0,.61.57,2.28,2.28,0,0,0,2.67-.4,6.07,6.07,0,0,0,1.07-1.33l.37-.54a1.17,1.17,0,0,1,.32-.34,1.57,1.57,0,0,1,1,0l.32.07a4.57,4.57,0,0,0,5.2-3.69,1.43,1.43,0,0,0-.12-.91,1.35,1.35,0,0,0-.26-.33l-.08-.09c-.25-.33.19-1,.69-1.46a27.64,27.64,0,0,0,4.37-5.55,38.72,38.72,0,0,0,4.55,4.13.54.54,0,0,1,.28.77,2.13,2.13,0,0,0,0,.88c.27,1.16,1.71,1.19,2.48,1.2,1.79,0,4,1,6,1.89a22.07,22.07,0,0,0,5.46,1.86,4.5,4.5,0,0,1,.58,1,.92.92,0,0,1,.11.47,1.22,1.22,0,0,1-.24.35l-.19.24a2.91,2.91,0,0,0,.36,3.51A7.46,7.46,0,0,0,628,404l4.74,2.1a4.58,4.58,0,0,0,1.57.48,4.22,4.22,0,0,0,2.19-.59,16.18,16.18,0,0,0,2.81-1.84l.22-.18a3.73,3.73,0,0,1,2.36-1.22,3.29,3.29,0,0,1,1.09.33c1,.41,1.89.85,2.82,1.31a3.39,3.39,0,0,0-.79.93,2,2,0,0,0,.12,2.29,2.7,2.7,0,0,0,2.05.67l.31,0a.41.41,0,0,1,.32.14.68.68,0,0,1-.2.48,3.3,3.3,0,0,1-.49.37,3.82,3.82,0,0,0-.72.58,2.64,2.64,0,0,0-.42,2.66,6.71,6.71,0,0,0,1.29,2.08c2.71,3.36,5.46,6.44,9.29,7.33l.36.08a3,3,0,0,1,1.5.58c.67.61.56,1.78.35,2.65a1.29,1.29,0,0,0,0,.94,1.26,1.26,0,0,0,.9.55,22,22,0,0,0,3,.44c.18-.32.35-.65.53-1a22,22,0,0,1-3.34-.44c-.15,0-.2-.06-.21,0a2.23,2.23,0,0,1,0-.23c.4-1.63.18-2.89-.65-3.64a4,4,0,0,0-2-.82l-.34-.07c-3.52-.82-6.14-3.77-8.73-7a6.06,6.06,0,0,1-1.13-1.76,1.69,1.69,0,0,1,.22-1.66,3,3,0,0,1,.53-.42,3.65,3.65,0,0,0,.65-.5,1.68,1.68,0,0,0,.49-1.28,1.13,1.13,0,0,0-.46-.82,1.6,1.6,0,0,0-.81-.24h-.33c-.55,0-1.07-.05-1.33-.34a1,1,0,0,1,0-1.12,4,4,0,0,1,1.14-1.11l.64-.48-.71-.38c-1.17-.6-2.37-1.18-3.58-1.7a4.2,4.2,0,0,0-1.43-.41,4.55,4.55,0,0,0-3.07,1.45l-.21.18a15.65,15.65,0,0,1-2.63,1.72,3.47,3.47,0,0,1-1.66.48,4,4,0,0,1-1.23-.39l-4.73-2.1a6.77,6.77,0,0,1-2.45-1.53,1.92,1.92,0,0,1-.31-2.26,1.33,1.33,0,0,1,.14-.19,1.77,1.77,0,0,0,.45-.76,1.79,1.79,0,0,0-.15-1.1,7,7,0,0,0-1.44-2.08,19,19,0,0,1,1.35-1.82c.36-.46.74-.92,1.07-1.4a6.17,6.17,0,0,0,3.78-1.48,1.64,1.64,0,0,0,.5-.67,1.15,1.15,0,0,0-.09-.92,2.22,2.22,0,0,0-1.42-.95c-.31-.08-1-.26-1.06-.57a.22.22,0,0,1,.07-.19,1.18,1.18,0,0,1,.83-.26l.57.08a3.09,3.09,0,0,0,1.65,0,3,3,0,0,0,1.5-1.71,3.58,3.58,0,0,1,.69-1.08,3.29,3.29,0,0,1,2-.58,5.88,5.88,0,0,0,1.92-.4,5.7,5.7,0,0,0,1.89-1.62,4.52,4.52,0,0,1,1.6-1.39,1.36,1.36,0,0,0,.54-.36,9,9,0,0,0,4,2l.23,0,.19-.14a17.93,17.93,0,0,0,6.66-12.26,1.49,1.49,0,0,0-.17-1,1.66,1.66,0,0,0-1.05-.62,6.38,6.38,0,0,1-2.36-1.17l-.16-.13s0,0,.06-.13a2.21,2.21,0,0,1,1.4-1.09,2.18,2.18,0,0,1,1.75.21,4.16,4.16,0,0,1,.45.32,2.4,2.4,0,0,0,1.83.69,1.53,1.53,0,0,0,1-.71,2.11,2.11,0,0,0,.25-1.68,4.51,4.51,0,0,0-1.2-1.86l-.15-.17a2.69,2.69,0,0,1-.85-1.61,3,3,0,0,1,.33-1.09c.08-.19.17-.38.23-.57a2,2,0,0,0-.5-2.35,2.36,2.36,0,0,0-.77-.29c-.11,0-.22-.05-.33-.09a1,1,0,0,1-.54-1.19,3.21,3.21,0,0,1,.76-1c.53-.54,1.19-1.2,1-2.12a2.39,2.39,0,0,0-1.28-1.38,4.65,4.65,0,0,1-.57-.37,2.38,2.38,0,0,1-.54-2.39,7.85,7.85,0,0,1,1.42-2.51,5.88,5.88,0,0,0,.72,0,3.11,3.11,0,0,1,1.13.11,2.71,2.71,0,0,1,.84.58l.11.09a13.65,13.65,0,0,0,7.73,3.23,28,28,0,0,0,3.78-.05,16.26,16.26,0,0,1,5.38.26q.15-.48.33-1a17.23,17.23,0,0,0-5.77-.31,27.69,27.69,0,0,1-3.64,0,12.6,12.6,0,0,1-7.15-3l-.11-.09a3.75,3.75,0,0,0-1.14-.77,4.16,4.16,0,0,0-1.51-.17,2,2,0,0,1-1.3-.23,2.07,2.07,0,0,1-.51-1c-.07-.2-.14-.4-.22-.6a6.38,6.38,0,0,0-1.61-2l-6.34-5.92a3.4,3.4,0,0,0-1.33-.88,3.52,3.52,0,0,0-1.62,0l-.37.07a10.26,10.26,0,0,1-3-.19,11.11,11.11,0,0,0-3.31-.19l-.64.11a4.72,4.72,0,0,1-1.09.14,4.42,4.42,0,0,1-2.38-.63l-.18-.12-.22.05a4.78,4.78,0,0,1-3.24-.53c-.52-.25-1-.55-1.52-.83a19.44,19.44,0,0,0-1.75-.94,20.3,20.3,0,0,0-5.58-1.39,3.6,3.6,0,0,0-2.47.24,3.74,3.74,0,0,0-1.44,2.64l-.08.32c-.2.82-.75,1.68-1.37,1.66a2.06,2.06,0,0,1-.91-.44,46,46,0,0,1-4.25-3.35l-.43-.39a12.64,12.64,0,0,0-3.95-2.73,4.65,4.65,0,0,0-4.94.89,37.18,37.18,0,0,0-8.07-5.34,2.4,2.4,0,0,1-1-.71,2.19,2.19,0,0,1,0-1.53,4.36,4.36,0,0,0,.07-1.77,3.38,3.38,0,0,0-2.32-2.17l-.7-.24a5.25,5.25,0,0,1-1.74-.8c-.17-.14-.33-.3-.5-.47a2.71,2.71,0,0,0-1.87-1.05h-.39l-.1.37a7.37,7.37,0,0,1-1.28,2.19c-.84,1.11-1.7,2.26-1.48,3.77a.38.38,0,0,1-.28.13,1.54,1.54,0,0,1-.86-.45,23.75,23.75,0,0,1-1.77-1.71,19,19,0,0,0-2.52-2.29,19.36,19.36,0,0,0-2.33-1.33c-.61-.31-1.24-.63-1.82-1a21.94,21.94,0,0,1-4.07-3.7,8.11,8.11,0,0,1-2.22-3.36c-.07-.3-.1-.6-.14-.9a4.8,4.8,0,0,0-.54-2c0-.09-.12-.18-.18-.27a1.46,1.46,0,0,1-.24-.43c-.08-.32.2-.74.49-1.1a72.83,72.83,0,0,1,8.17-8.67,2.51,2.51,0,0,0,1-1.71,2.48,2.48,0,0,0-1.12-1.8c-3.36-2.77-6.83-5.64-10.9-7.48l-.22-.1a7,7,0,0,1-1.3-.69,6.86,6.86,0,0,1-1.18-1.17,6.73,6.73,0,0,0-1.75-1.56c-1.47-.81-3.21-.47-4.87-.07l-.46.12.09.47a11.61,11.61,0,0,1,.12,2.13v1.3c0,2.33-.13,4.54-1.23,6.2a12.22,12.22,0,0,0-1.48-1.85,10.85,10.85,0,0,1-2.12-3c-.36-.77-.62-1.45-.85-2.06a9.38,9.38,0,0,0-4.37-5.51c-3.62-2.37-4.32-4.83-5.46-9.75-.76-3.31-3-5.46-4.65-7a7.51,7.51,0,0,1-1.87-2.21l-.16-.47a13,13,0,0,1,.15-9.94c1.16-3.1,1.07-7.38,1-11.15-.06-2.87-.12-5.58.49-6.33a6.87,6.87,0,0,0,1.59-4.21c.07-.63.16-1.33.33-2.21.37-2,1.25-2.76,2.56-3.89a20.76,20.76,0,0,0,2.17-2.06,5.62,5.62,0,0,1,3.39-2.07,18.49,18.49,0,0,0,3.42-1.25c3.94-1.88,3.1-4.81,2.94-5.27l.14-.18a41.46,41.46,0,0,1,5.43-1.61,24.54,24.54,0,0,1,6.06-.68,42.75,42.75,0,0,0,11.75-1.71c5.38-1.5,7-1.08,9-.56a19.65,19.65,0,0,0,7.11.64c8.51-.5,13.39,1.75,20.14,4.86,4.16,1.92,6.13.23,7.86-1.25,1.22-1,2.26-2,4-1.64,1,.17,2,.42,3.19.68,4.34,1,9.25,2.09,12.66.17,2.48-1.39,3.16-.88,4.65.23a13.63,13.63,0,0,0,3.08,1.86,26,26,0,0,1,3.51,1.9c2,1.22,3.88,2.38,7,2.44h.27c5.31,0,10.11-2.95,13.21-5.44,1.11-.9,1.87-1.29,2.36-1.19s.9.84,1.42,1.78a17.25,17.25,0,0,0,1.7,2.68c2.91,3.66,4.59,3.44,9,1.79,2.77-1,7.58,0,11.45.79a28.55,28.55,0,0,0,4.89.79c2.53,0,2.53,0,3.41,1.17l.44.57a10.15,10.15,0,0,0,3.16,2.25,15.33,15.33,0,0,1,4.22,3c2.07,2.29,1.93,2.68.26,7.39l-.43,1.2c-1.94,5.55.93,8.26,1.63,8.82q.17-.42.3-.9C708.12,238.35,705.36,236.21,707.25,230.83ZM368.61,414.06l-.31-.43a11.43,11.43,0,0,1-1.81-3,11.14,11.14,0,0,1-.46-2.75,13.89,13.89,0,0,0-.43-2.76,13.63,13.63,0,0,0-2.51-4.23l-8.58-11.09c-1.22-1.58-2.74-3.89-1.76-5.73a6.47,6.47,0,0,1,.92-1.19,3.94,3.94,0,0,0,1.35-2.5,4.26,4.26,0,0,0-1.27-2.69,4.06,4.06,0,0,1-1-1.72,70.59,70.59,0,0,0,26.83-11.43c.06.09.11.19.18.29-.34,1.74.62,3.09,1.55,4.4a15.49,15.49,0,0,1,.91,1.37,12.84,12.84,0,0,1,.89,2,16.88,16.88,0,0,0,.68,1.68c1.19,2.43,3.38,4.2,5.5,5.92,2.61,2.11,5.07,4.11,5.56,7.15,0,.32.08.64.1,1a7.69,7.69,0,0,0,.3,1.82,8,8,0,0,0,1.19,2.14l.35.51a13.66,13.66,0,0,1,2,10.07l-.28,1.41,1.1-.93c2-1.73,4.17-3.41,6.34-5l.45-.33-.37-.41a3.57,3.57,0,0,1-1.21-2.36,3.43,3.43,0,0,1,1.19-1.89,120,120,0,0,1,18.48-15.25,3,3,0,0,1,1.75-.74,3.31,3.31,0,0,1,1.63.74,43.88,43.88,0,0,1,7.4,5.85,14.53,14.53,0,0,1,4.14,8.08c0,.34.06.69.09,1a6.94,6.94,0,0,0,1,3.79,6.77,6.77,0,0,0,1.38,1.3,5.18,5.18,0,0,1,1.27,1.24,5,5,0,0,1,.58,1.69,37.31,37.31,0,0,1,.76,6.74V408a4.14,4.14,0,0,0,1.1,3.31,4.43,4.43,0,0,1,.46.61,6.54,6.54,0,0,1,.71,1.89,73.45,73.45,0,0,0,3,8.79A8.41,8.41,0,0,0,452,426a3.94,3.94,0,0,0,2.41.87,2.94,2.94,0,0,0,.84-.12,18.05,18.05,0,0,0,1,1.53l.37.51c.42.58,1,1.67,1.71,2.93,2.38,4.33,4.51,7.93,6.46,8.19l.15,0c2.64.35,7.07.94,8.19,8.33.17,1.13.31,2.09.42,2.9.68,4.86.72,4.93,3.94,8.3l.25.25a15.51,15.51,0,0,0,8,4.76c.42.12.8.23,1.14.35a4.69,4.69,0,0,0,1.67.22c1.35,0,2.75,0,5.13,3.71a11.08,11.08,0,0,0,3.67,3.48c.61.4,1.09.71,1.11,1,.06.69-1.72,2.41-3.66,4.17l-1.22,1.1c-4.77,4.32-6.37,5.77-6.32,7.17a2.55,2.55,0,0,0,1.21,1.79,7.47,7.47,0,0,0,2.85,1.17c1.59.39,2.55.63,2.46,2.53a6.9,6.9,0,0,0,.78,3.71l-13.32,13.41a6.56,6.56,0,0,1-2.75,2,6.83,6.83,0,0,1-1.4.15,4.43,4.43,0,0,0-4.25,2.33,4.53,4.53,0,0,1-1.84,1.69,4.46,4.46,0,0,1-1.84.1l-.69,0a12.27,12.27,0,0,0-7,2.37c-2,1.27-4.39,2.85-6.23,1.74a5.63,5.63,0,0,1-1.26-1.23,9,9,0,0,0-.94-1,9.54,9.54,0,0,0-3.56-1.74,6.9,6.9,0,0,1-3.51-1.91c-1.25-1.58-.74-3.68-.2-5.9a11.91,11.91,0,0,0,.46-5.44l-.07-.31-.32-.07c-.93-.18-1.58.55-2.1,1.15s-.78.86-1.09.75a.91.91,0,0,1-.41-.45,7.45,7.45,0,0,1-.59-3.43c0-.34,0-.69,0-1-.12-2.23-1-3.85-2.39-4.45a4.79,4.79,0,0,0-2.36-.23,14,14,0,0,0-5.88,2,2.15,2.15,0,0,0-1,1.07,2.44,2.44,0,0,0,.4,2,11.1,11.1,0,0,1,1.24,5.57c-1.74-1.83-3.81-3.41-6.21-3-2,.32-3.7,2-5.11,5.08l-.19.41c-.9,2-1.82,4-3.63,4.93-.65.33-1.55.41-1.93-.08a2.13,2.13,0,0,1-.3-1.12l-1.48-14.76a24.74,24.74,0,0,0-.76-4.62c-.95-3.28-3.19-6-5.16-8.48a19.35,19.35,0,0,0-4.81-4.69c-.39-.23-.8-.45-1.22-.67-1.63-.88-3.31-1.78-3.38-3.34a5.65,5.65,0,0,1,.08-.89,3.56,3.56,0,0,0-.05-1.77,2.33,2.33,0,0,0-1.39-1.28c-.2-.1-.35-.17-.46-.24a.79.79,0,0,0,.16-.69.68.68,0,0,0-.58-.53.86.86,0,0,0-.64.17h0L384.46,449.5A25.38,25.38,0,0,1,382,444a26.74,26.74,0,0,1-.51-2.67,15,15,0,0,0-1.31-4.83,15.12,15.12,0,0,0-1.65-2.34,19.35,19.35,0,0,1-1.22-1.64,19.64,19.64,0,0,1-1.9-4.61l-.29-.92A45.81,45.81,0,0,0,368.61,414.06Zm115,152.1a21.09,21.09,0,0,0-3.28-5.45,8.67,8.67,0,0,0-7.05-3.17c-.47.05-.92.15-1.37.24a8.28,8.28,0,0,1-1.59.24c-1.74,0-3.36-1-4.7-1.76l-5.73-3.47a5.37,5.37,0,0,1-1.8-1.47,5.74,5.74,0,0,1-.65-1.79,4.21,4.21,0,0,0-1.53-2.78l-.33-.21-6.25,6a1.35,1.35,0,0,1-.65.43c-.33,0-.67-.5-.92-.95-2.32-4.16-7.39-7.35-11.86-5.51-.35.15-.7.33-1.05.51a6.76,6.76,0,0,1-1.77.71c-1.7.31-3.36-.85-4.44-1.89-.37-.36-.73-.74-1.09-1.12a13.19,13.19,0,0,0-3.07-2.63,13,13,0,0,0-4.28-1.26,13.58,13.58,0,0,1-3.62-1c-.3-.14-.59-.31-.88-.47a7.76,7.76,0,0,0-1.87-.85,8,8,0,0,0-4.14.34,8,8,0,0,1-3.38.41c-1.79-.31-3-1.81-4.31-3.39a22.5,22.5,0,0,0-1.63-1.87c-2-2-4.58-3.08-7.09-4.15a36.3,36.3,0,0,1-4.36-2.08c-.57-.34-1.12-.71-1.67-1.08a10,10,0,0,0-10.36-1.91c-.78.19-1.56.36-2.35.48.13-.82.3-1.66.49-2.51l.14,0a2.1,2.1,0,0,1,1.06-1.24l-.43-.89,1.78-6a8.63,8.63,0,0,0,.49-4.3,9.23,9.23,0,0,0-.34-1.09,6.8,6.8,0,0,1-.32-1,7.59,7.59,0,0,1,.53-3.74l.06-.18a57,57,0,0,0,2.36-12.19,11.86,11.86,0,0,0-.38-5,13.91,13.91,0,0,0-.94-1.94,14.48,14.48,0,0,1-.7-1.35,16.19,16.19,0,0,1-1-5.8l-.54-10.94a84.82,84.82,0,0,1-.08-10.58c.05-.71.12-1.41.19-2.11.13-1.24.26-2.51.29-3.79.12-5-1.5-9.25-4.44-11.75l-.18-.15a2.86,2.86,0,0,1-.89-1,2.68,2.68,0,0,1,.19-1.65l2.57-7.89a20.39,20.39,0,0,0,2,4.86c.39.61.85,1.17,1.28,1.72a13.25,13.25,0,0,1,1.55,2.19,14.23,14.23,0,0,1,1.2,4.5,20.16,20.16,0,0,0,3.08,8.54l10.15,18.74a1.74,1.74,0,0,0,.85.88h0a2.38,2.38,0,0,0,1.11.85c.47.23.77.39.88.71a2.63,2.63,0,0,1,0,1.28,6.38,6.38,0,0,0-.09,1.08c.09,2.14,2.13,3.23,3.92,4.19.4.21.8.42,1.17.65a18.31,18.31,0,0,1,4.55,4.45c1.91,2.37,4.07,5.05,5,8.13a24.63,24.63,0,0,1,.73,4.44l1.47,14.77a3.07,3.07,0,0,0,.51,1.63,2.57,2.57,0,0,0,3.19.36c2.12-1.06,3.17-3.37,4.09-5.41l.19-.41c1.26-2.76,2.68-4.24,4.36-4.51,2.28-.36,4.34,1.58,6.06,3.54l.72.83.16-1.09a12.18,12.18,0,0,0-1.26-7.34,1.66,1.66,0,0,1-.33-1.12,1.41,1.41,0,0,1,.6-.55,13.09,13.09,0,0,1,5.46-1.82,3.81,3.81,0,0,1,1.86.16c1.46.63,1.73,2.71,1.78,3.58,0,.33,0,.66,0,1a8.26,8.26,0,0,0,.72,3.88,1.75,1.75,0,0,0,.95.92c1,.35,1.64-.42,2.19-1a3.44,3.44,0,0,1,.83-.77,12.66,12.66,0,0,1-.55,4.54c-.57,2.36-1.15,4.8.39,6.76a7.74,7.74,0,0,0,4,2.25,8.85,8.85,0,0,1,3.19,1.53,9.24,9.24,0,0,1,.84.91,6.32,6.32,0,0,0,1.51,1.45,3.68,3.68,0,0,0,1.94.54c1.85,0,3.75-1.24,5.38-2.3a11.13,11.13,0,0,1,6.38-2.2h.06a1.35,1.35,0,0,0-.2.27,4,4,0,0,0,.06,3.22,18.78,18.78,0,0,0,1.77,3.6c.34.49.72,1,1.09,1.4a9.36,9.36,0,0,1,1.63,2.4,9.51,9.51,0,0,1,.51,2.18c.08.49.16,1,.28,1.5a4,4,0,0,0,2.69,3.19,5.09,5.09,0,0,0,1.74,0,2.84,2.84,0,0,1,1.7.14c.73.43.86,1.54.89,2.57l.24,8.43a2.37,2.37,0,0,1-.29,1.56,2.72,2.72,0,0,1-.51.39,4.14,4.14,0,0,0-.48.34,2.58,2.58,0,0,0-.92,2.06,5.14,5.14,0,0,0,1.89,3.65c.5.41,1,.76,1.55,1.11a7.26,7.26,0,0,1,2.67,2.43c.71,1.32.51,3,.18,4.59A54.87,54.87,0,0,1,483.59,566.16Zm70.21,31.39-.13.21a3.61,3.61,0,0,0-.59,1.23c-.27,1.25.58,2.28,1.32,3.18s1.29,1.57,1.07,2.34a3.17,3.17,0,0,1-.37.7,4,4,0,0,0-.32.52,3.23,3.23,0,0,0-.13,2.54,3.18,3.18,0,0,0,1.71,1.89l.2.09c.28.11.7.29.71.45s0,.16-.3.38-.58.5-.89.75c-1.39,1.14-3,2.43-2.82,4.35a5.94,5.94,0,0,0,.15.86,2.58,2.58,0,0,1,.12,1,2.25,2.25,0,0,1-.47.94,10.6,10.6,0,0,1-3.57,3.12l-.59.32.46.48a3.68,3.68,0,0,1,.8,3.26,7.77,7.77,0,0,1-1.68,3.28l-.12.15a4.16,4.16,0,0,0-1.14,2.22,4.09,4.09,0,0,0,.56,2.11l1.9,3.94a3.68,3.68,0,0,0,.93,1.36,3.84,3.84,0,0,0,1.66.65l6.55,1.34c1.35.28,2.88.5,4-.4l.13-.11c.1-.08.24-.2.3-.2s.24.29.28.76a18.39,18.39,0,0,1-.35,6.8l-.11.33a5.47,5.47,0,0,0-.34,1.38c-.18,2.28,2.05,3.83,3.74,4.8A18.27,18.27,0,0,0,573,657.2a22.19,22.19,0,0,1-2.09.83,11.25,11.25,0,0,0-4.22,2.24,11,11,0,0,0-2,3.09,14.87,14.87,0,0,1-1.21,2.11A4.42,4.42,0,0,1,561,667.1l.59-.77-1.22-.92a25.13,25.13,0,0,0-11.25-4.48l-.37,0a7.7,7.7,0,0,1-2.27-.53,7.17,7.17,0,0,1-2-1.73c-3.25-3.55-6.44-7.24-9.47-11a5.72,5.72,0,0,1-1.09-1.71,5.48,5.48,0,0,1-.21-1.6c0-.23,0-.47,0-.7-.27-3.3-2.41-6.09-4.58-8.66-.82-1-1.66-2-2.5-2.93a4.34,4.34,0,0,0-1.39-1.2c-1.34-.64-2.73,0-3.95.63l-.43.2a11.09,11.09,0,0,1-11.11-1.17l-.09-.07a3,3,0,0,0-2.28-.87,2.69,2.69,0,0,0-1.55,1.09,18.19,18.19,0,0,0-3.72,7.67,5.07,5.07,0,0,0,.27,3.64,7.06,7.06,0,0,0,.94,1.18c.69.74,1.09,1.23.92,1.77a2.28,2.28,0,0,1-.49.68c-1.21,1.31-2.61,2.69-4.29,2.55-1.33-.11-2.35-1.17-3.44-2.3s-2.47-2.56-4.28-2.56h0c-1.57,0-2.76,1-3.91,2a14.81,14.81,0,0,1-1.25,1,7.14,7.14,0,0,1-7,.53,2.79,2.79,0,0,0,.08-1.46,4.88,4.88,0,0,0-1.49-2.29,8,8,0,0,0-3.52-2.13c-.33-.09-.67-.14-1-.2a5,5,0,0,1-1.6-.43,4.9,4.9,0,0,1-1.75-2.16,11.46,11.46,0,0,0-.93-1.48,11.73,11.73,0,0,0-1.18-1.26,3.33,3.33,0,0,1-1.68-3.21,6.53,6.53,0,0,0,0-1,4.65,4.65,0,0,0-1.6-2.6,3.07,3.07,0,0,1,.86-.65,2.54,2.54,0,0,0,1.44-1.64,2.36,2.36,0,0,0-.1-1,1.93,1.93,0,0,1-.08-.64,1.7,1.7,0,0,1,.46-.73,29.47,29.47,0,0,1,4.81-4.32,2.4,2.4,0,0,0,.79-.82c.46-.92-.17-1.75-.68-2.42a7,7,0,0,1-.42-.58c-.57-.93-.35-2.1-.13-3.34a6.9,6.9,0,0,0,.05-3.55,6.61,6.61,0,0,0-1.53-2.24,8.3,8.3,0,0,1-1.08-1.35,5.36,5.36,0,0,1,.5-5.5,16.85,16.85,0,0,1,4.5-4.2l.51-.37-.47-.42a19.84,19.84,0,0,0-4.1-2.54,11.86,11.86,0,0,1-5.78-4.66,10.63,10.63,0,0,0-2.62-2.82,11.26,11.26,0,0,0-2.05-1,8.79,8.79,0,0,1-1.95-.93,2.73,2.73,0,0,1-1.16-2,1.14,1.14,0,0,1,.38-1,3,3,0,0,1,.56-.34,3.1,3.1,0,0,0,1-.71,3.54,3.54,0,0,0,.38-.67,2.61,2.61,0,0,1,.21-.41,2.42,2.42,0,0,1,1.19-.66c2.29-.8,5.14-1.78,7.74-1.08.45.13.88.3,1.34.48A15.62,15.62,0,0,0,471,577a13.06,13.06,0,0,0,5,0,4.77,4.77,0,0,0,1.92-.55,4.88,4.88,0,0,0,1.55-1.89,7.76,7.76,0,0,1,.65-1,7.07,7.07,0,0,1,2-1.54c.46-.28.94-.56,1.38-.89,1.4-1.07,2.28-3,1.31-4.41l-.4.27a53.55,53.55,0,0,0,1.64-6.21,8.09,8.09,0,0,0-.17-5l.81.3a2.22,2.22,0,0,1,1.26-1.28,3.91,3.91,0,0,1,2.93-.05,11.14,11.14,0,0,1,3.77,3.07l.39.42a44.67,44.67,0,0,0,10.92,8.58l.92.52-.17-1a1.71,1.71,0,0,1,.44-1.42,2.46,2.46,0,0,1,1.78-.87h0a3.76,3.76,0,0,1,3.1,2.14l.13.23c.51,1,1.22,2.33,2.56,2.15a2.75,2.75,0,0,0,1.12-.51l.26-.17c1.49-.9,3.46-.23,4.82.7a21.81,21.81,0,0,1,1.92,1.56,13.13,13.13,0,0,0,5.78,3.35,21.48,21.48,0,0,1,2.19.84c3,1.38,5.26,4,7.46,6.54l1.27,1.46c2.33,2.6,6,6.09,10.49,6.24.53,0,1.06,0,1.57,0a12,12,0,0,1,1.89,0,6.2,6.2,0,0,0,1.71,4.13l-.44.08A7.15,7.15,0,0,1,553.8,597.55Zm-26.46-79.43a31,31,0,0,0,3.72,4.48l.15.13c1.64,1.48,3.33,3,6.25.84a4.75,4.75,0,0,0,1.73-2.4c.28-.76.35-1,2.46-.27a4.52,4.52,0,0,1,2.67,2.38c.94,1.55,1.92,3.15,6.39,2.71a25.7,25.7,0,0,0,6.9-1.71c2.13-.78,3.3-1.21,4.7-.13,3,2.34,7.45,4.79,11.34,3.16,4.06-1.71,6.1-1.52,7.78.74,1,1.38,1.62,1.39,2.42.93.46-.26,1-.6,3,.9a11.19,11.19,0,0,0,5.22,2.51,5.54,5.54,0,0,1,2.35.92,11.4,11.4,0,0,1,1.07.86c1,.84,1.22.77,3,.25l.66-.19c1.93-.55,2.68.26,3.92,1.62a15.72,15.72,0,0,0,1.88,1.83,10.28,10.28,0,0,1,1.55,1.49,3.69,3.69,0,0,0,1,.91,3.49,3.49,0,0,0-1,2.78,3.61,3.61,0,0,0,1.19,2.44l-4.83,9.29a5.08,5.08,0,0,0-.78,2.56,4.61,4.61,0,0,0,.7,2,20.34,20.34,0,0,0,9.25,8.44,60.15,60.15,0,0,0-6.14,16.94c-.39,1.92-.95,3.75-2.42,4.12a3.77,3.77,0,0,1-2.07-.25c-5-1.72-8.57-5.82-12.42-10.61a4,4,0,0,0-2-1.58c-1.68-.4-3.14,1.17-3.71,2.93L583,580a5.52,5.52,0,0,1-1.28,2.67,4.86,4.86,0,0,1-1.66-1.8,5,5,0,0,0-2.4-2.31c-1.43-.48-2.91.14-4.5,1.91a3.14,3.14,0,0,0-1.23-1.31,3.92,3.92,0,0,0-3.65-.24c-2.42,1.15-3,4-3.16,5.19l0,.45a4.35,4.35,0,0,1-.5,1.94,4.21,4.21,0,0,1-1.43,1.17l-7.18,4.3a5.2,5.2,0,0,1-1.5-3.94l0-.45-.44-.08a11.58,11.58,0,0,0-2.56-.06,14.79,14.79,0,0,1-1.48,0c-4.15-.14-7.56-3.44-9.76-5.91-.43-.47-.85-1-1.27-1.44-2.26-2.62-4.61-5.33-7.8-6.8-.75-.34-1.53-.61-2.28-.88a15.79,15.79,0,0,1-3-1.26,15.37,15.37,0,0,1-2.44-1.89,21.47,21.47,0,0,0-2-1.63c-1.61-1.11-4-1.89-5.91-.74a3.28,3.28,0,0,0-.31.2,2.1,2.1,0,0,1-.68.35c-.59.07-1-.65-1.54-1.62l-.13-.24a4.77,4.77,0,0,0-4-2.67h0a3.41,3.41,0,0,0-2.55,1.23,2.86,2.86,0,0,0-.65,1.3,44,44,0,0,1-9.95-8l-.39-.43a11.82,11.82,0,0,0-4.14-3.32,5,5,0,0,0-3.72.07,3.24,3.24,0,0,0-1.73,1.72l0,0a8.28,8.28,0,0,0-3-2.81c-.5-.33-1-.67-1.47-1a4.13,4.13,0,0,1-1.52-2.88,1.61,1.61,0,0,1,.55-1.28l.38-.26a3.21,3.21,0,0,0,.73-.58,3.13,3.13,0,0,0,.54-2.25l-.24-8.43c0-1.31-.23-2.73-1.39-3.41a3.72,3.72,0,0,0-2.31-.27,4.44,4.44,0,0,1-1.41,0c-1.31-.32-1.81-2-1.94-2.46s-.18-.93-.26-1.4a10.3,10.3,0,0,0-.57-2.41,10.67,10.67,0,0,0-1.79-2.67,16.29,16.29,0,0,1-1-1.32,17.93,17.93,0,0,1-1.66-3.41,3.05,3.05,0,0,1-.13-2.33.53.53,0,0,1,.42-.27l-.05-.44a4.46,4.46,0,0,0,1.8-.19,5.31,5.31,0,0,0,2.3-2,4.88,4.88,0,0,1,1.74-1.66,4.83,4.83,0,0,1,1.75-.28,7.59,7.59,0,0,0,1.62-.18A7.47,7.47,0,0,0,482,509l13.19-13.27a4.3,4.3,0,0,0,.83.8c.5.82,4.11,6.78,4.67,7.73a.83.83,0,0,0,1.18.43c.3-.13,1-.41,3.35,1.27A35,35,0,0,1,509.6,510c2.41,2.5,4.68,4.85,7,5.14a9.32,9.32,0,0,0,4-.62c1.87-.58,3.22-1,4.54.68l.27.36c0,.06,0,.12,0,.18l.17,0C526.22,516.61,526.81,517.4,527.34,518.12Zm6.52-68.26a14,14,0,0,0,1.49,1c1,.57,1.6.94,3,3.31a10,10,0,0,0,4.06,4.35,8.09,8.09,0,0,1,.73.46,22.06,22.06,0,0,1,2.23,1.78,3.25,3.25,0,0,1,.85,3.8l-.12.31a2.49,2.49,0,0,0-.21,1.77c.4,1.16,1.76,1.25,2.75,1.32h.11a6.7,6.7,0,0,1,3.81,1.52c.15.12.3.26.45.4a5.24,5.24,0,0,0,1.76,1.18l.36.1a1.64,1.64,0,0,1,.56.21c.33.26.25.93,0,1.4a5.76,5.76,0,0,1-.52.7,5.34,5.34,0,0,0-.8,1.2c-.9,2.06.79,4.16,1.56,5a7.15,7.15,0,0,0,3,2,9,9,0,0,0,3.37.22,9.57,9.57,0,0,1,2.63.06.85.85,0,0,1,.41.17c.15.17,0,.56-.3,1.06a3.72,3.72,0,0,0-.21.39c-.67,1.4-.16,2.84.33,4.24a5.36,5.36,0,0,1,.47,3.37,1.2,1.2,0,0,1-.43.6c-.4.26-1,0-1.37-.4a5.22,5.22,0,0,1-.74-1.34c-.07-.18-.15-.36-.23-.53a8.69,8.69,0,0,0-4.55-4.3,2.4,2.4,0,0,0-1.65-.16c-.9.3-1.23,1.22-1.51,2-.93,2.65-2.8,4.74-4.78,6.95a29.46,29.46,0,0,0-4.26,5.6l-.23.45a4.69,4.69,0,0,1-1.88,2.33,3.62,3.62,0,0,1-1.83.16c-.71-.08-1.44-.23-2.14-.37a22.72,22.72,0,0,0-2.38-.4,6.4,6.4,0,0,0-4.71,1.15,8,8,0,0,0-1.34,1.55l-2.76,3.84a17.24,17.24,0,0,0-3.12,5.88c-1.67-1.78-3.52-1.2-5.31-.64a8.41,8.41,0,0,1-3.56.57c-2-.24-4.14-2.47-6.42-4.83a35.88,35.88,0,0,0-4.53-4.19c-2.32-1.67-3.4-1.71-4.25-1.41-.63-1.08-4.56-7.54-4.72-7.81l-.07-.11-.1-.06c-.08-.05-2-1.29-1.83-4.53.13-2.73-1.65-3.17-3.22-3.56a6.62,6.62,0,0,1-2.48-1c-.55-.42-.8-.73-.81-1,0-.93,2-2.75,6-6.38l1.22-1.11c3.14-2.84,4.07-4,4-5-.06-.78-.73-1.21-1.57-1.75a10.33,10.33,0,0,1-3.37-3.19c-2.68-4.16-4.51-4.17-6-4.17a3.74,3.74,0,0,1-1.32-.16c-.37-.13-.77-.24-1.22-.37a14.67,14.67,0,0,1-7.53-4.49l-.25-.25c-3-3.16-3-3.16-3.67-7.74-.11-.82-.25-1.77-.42-2.91-1.24-8.14-6.52-8.84-9.06-9.18l-.14,0c-1.61-.21-4.18-4.88-5.71-7.67a33,33,0,0,0-1.78-3l-.38-.52c-.36-.5-.69-.95-.95-1.39l.07-.05-.28-.34a5,5,0,0,1-.1-4.05c.31-1,1.87-2.37,4.29-3.65,4-2.13,9.06-3.42,11-2.81,2.61.83,3.09,2.45,4,5.39.2.7.42,1.46.7,2.28,1.47,4.41,7.88,13.19,8.21,13.62a40.9,40.9,0,0,1,5.43,7,26,26,0,0,1,2.28,4.54,8,8,0,0,0,2.1,3.38c.45.44.87.9,1.28,1.36,1.5,1.68,3.06,3.42,6,2.9,2.1-.37,2.21-.17,2.76.76a9.11,9.11,0,0,0,1.17,1.66,1.6,1.6,0,0,0,1.3.66c.88-.05,1.51-1,2.38-2.22a12.71,12.71,0,0,1,3.74-3.93,7,7,0,0,1,3-1.11c1.11-.15,1.45-.4,2.27-2.49.89-2.27.83-2.95-.31-3.49a1.93,1.93,0,0,1-.87-.65c-.21-.29-.44-.55-.66-.81-.92-1.07-1.64-1.91-.94-4,.76-2.23,2.3-2.48,6.59-1.1a3.36,3.36,0,0,1,2.46,2.15c.39.91.82,1.56,2.57.94a5.85,5.85,0,0,0,2.66-1.81C529.86,442.33,532,448.42,533.86,449.86Zm107.66-70.14a.34.34,0,0,1-.22-.15l.19-.24.31.3A.3.3,0,0,1,641.52,379.72Zm-62.41-58.78a1.06,1.06,0,0,0,.26-.91c-.18-1,.52-1.94,1.25-2.92a9.34,9.34,0,0,0,1.3-2.07,3.23,3.23,0,0,1,.83.68,7.28,7.28,0,0,0,.58.54,6.17,6.17,0,0,0,2.06,1l.65.23c.55.2,1.5.67,1.7,1.46a3.3,3.3,0,0,1-.09,1.34,3,3,0,0,0,.17,2.25,3.2,3.2,0,0,0,1.43,1.09,36.69,36.69,0,0,1,8.25,5.54l.44.39.32-.5c.82-1.28,2.73-1.44,4.09-.94a11.9,11.9,0,0,1,3.63,2.53l.43.39a48.08,48.08,0,0,0,4.34,3.43,2.83,2.83,0,0,0,1.43.61c1.34.1,2.13-1.25,2.41-2.42l.08-.33c.19-.81.39-1.65,1-2a2.8,2.8,0,0,1,1.8-.11,19.58,19.58,0,0,1,5.31,1.31,15.73,15.73,0,0,1,1.66.89c.51.3,1,.6,1.59.87a6,6,0,0,0,3.72.65,5.64,5.64,0,0,0,2.7.68,5.27,5.27,0,0,0,1.33-.16l.58-.1a10,10,0,0,1,3,.19,11.09,11.09,0,0,0,3.36.19l.4-.07a1.75,1.75,0,0,1,2.08.59l6.33,5.91a5.57,5.57,0,0,1,1.38,1.67,5.27,5.27,0,0,1,.19.51,3,3,0,0,0,.83,1.44,2.39,2.39,0,0,0,.22.12,8,8,0,0,0-1.38,2.55,3.32,3.32,0,0,0,.87,3.43,6.1,6.1,0,0,0,.7.47c.4.24.74.45.81.75s-.2.67-.69,1.16a4,4,0,0,0-1,1.37,2,2,0,0,0,1.14,2.47,3.33,3.33,0,0,0,.45.13,1.32,1.32,0,0,1,.44.15c.29.19.28.74.12,1.17a5.49,5.49,0,0,1-.21.51,3.86,3.86,0,0,0-.41,1.48,3.5,3.5,0,0,0,1.11,2.29l.15.18a3.74,3.74,0,0,1,1,1.44,1.13,1.13,0,0,1-.13.88.52.52,0,0,1-.35.26c-.35.05-.67-.21-1.06-.51-.17-.13-.35-.26-.52-.37a3.35,3.35,0,0,0-4.59,1.28,1.19,1.19,0,0,0-.15.74,1.25,1.25,0,0,0,.53.78,7.79,7.79,0,0,0,2.75,1.36,1.1,1.1,0,0,1,.43.17.82.82,0,0,1,0,.35A16.87,16.87,0,0,1,646,380.78a7.91,7.91,0,0,1-4.64-3.12,4.13,4.13,0,0,1-.76-1.62,6.46,6.46,0,0,1,0-1.47l0-.24a22.83,22.83,0,0,0-.3-4.67l-.09-.53-.52.12c-.52.12-1.05-.4-1.2-.94a4.56,4.56,0,0,1,.15-2.16l.14-.6-.62,0h-.09a5.05,5.05,0,0,0-4.56,3.11,3.1,3.1,0,0,1-1.95-1.31,4.44,4.44,0,0,1-.28-.7l-.12-.37a5.87,5.87,0,0,0-5.74-3.71,11,11,0,0,0-1.64.29,9.39,9.39,0,0,1-1.33.25,5.44,5.44,0,0,1-4.39-1.59,11.53,11.53,0,0,1-.77-.91,5.1,5.1,0,0,0-2.56-2.06c-.15,0-.31-.06-.47-.09a1.61,1.61,0,0,1-.71-.22,1.56,1.56,0,0,1-.35-.86,3.9,3.9,0,0,0-.22-.77c-.69-1.64-2.67-2.14-4.13-2l-.38,0-.08.38a.71.71,0,0,1-.74.39,3,3,0,0,1-1.26-.58l-4.51-2.92c-1.65-1.07-3.57-2-5.33-1.22a7.44,7.44,0,0,0-.66.38,2.25,2.25,0,0,1-1,.44c-.73,0-1.3-.93-1.64-1.76a3.87,3.87,0,0,1-.46-2.16,3.91,3.91,0,0,1,.51-1.2l1.47-2.64a2.17,2.17,0,0,0,.36-1.38,2.09,2.09,0,0,0-.84-1.19,4,4,0,0,1-.37-.34,2.09,2.09,0,0,1-.08-2.08,9.61,9.61,0,0,1,.69-1.24c.22-.36.45-.73.65-1.12a3.22,3.22,0,0,0,.08-3.11,4.06,4.06,0,0,0-1.11-1.08c-.15-.11-.3-.22-.44-.34s-.28-.26-.41-.39a3.71,3.71,0,0,0-1.49-1,3.77,3.77,0,0,0-.85-.1h-.16a6.52,6.52,0,0,1-3.23-1.06l-.33-.22a4.79,4.79,0,0,0-1.19-.68,4.69,4.69,0,0,0-1.31-.23l-.35,0a7,7,0,0,1-4-1.81c-.3-.28-.43-.59-.37-.68a.79.79,0,0,1,.16-.14l.19-.16a2,2,0,0,0,.06-2.63,4.82,4.82,0,0,0-1.89-1.33A1.25,1.25,0,0,0,579.11,320.94Z" fill="#23639e"/><path d="M653.06,476.61a.65.65,0,0,0-.22.45v.05l-.3.51-.31-.07a26.47,26.47,0,0,0-5.11-.46c-.66,0-1.32,0-2-.08a13.72,13.72,0,0,1-7.11-2l-.58-.42a4.86,4.86,0,0,0-1.69-.95,4.76,4.76,0,0,0-2.39.34l-.37.12a24.83,24.83,0,0,1-5.93,1.37,8.23,8.23,0,0,1-6.3-2,2.25,2.25,0,0,1-.61-.81,2.67,2.67,0,0,1,0-1.61,2.24,2.24,0,0,0,.09-1c-.11-.42-.55-.7-1.06-1a3.59,3.59,0,0,1-1.42-1.32,3.34,3.34,0,0,1,0-2.33,5.09,5.09,0,0,0,.17-1.17,4.33,4.33,0,0,0-.5-1.63l-2.52-5.54a2.73,2.73,0,0,0-.61-.95c-.59-.48-1.62-.16-2.44.17l-2,.81a8,8,0,0,1-2.7.73,2.85,2.85,0,0,1-2.42-1.32,25.33,25.33,0,0,0-6.84-.51,3.83,3.83,0,0,0-1.76.41A4.26,4.26,0,0,0,595,457.7a5.08,5.08,0,0,1-1.44,1.52,4.86,4.86,0,0,1-2.59.48h0a5.29,5.29,0,0,0-1.77.19,5.45,5.45,0,0,0-1,.54,5.78,5.78,0,0,1-1.07.59,2.49,2.49,0,0,1-1.86,0,1.51,1.51,0,0,1-.85-.87l-.12-.31.24-.24a9,9,0,0,0,1.79-2.07,2.78,2.78,0,0,0,.28-2.36,1.52,1.52,0,0,0-1.73-.9,3.15,3.15,0,0,0-.68.41,2.88,2.88,0,0,1-1.19.62,2.57,2.57,0,0,1-2.4-1.1,7.62,7.62,0,0,1-.48-.64,5.34,5.34,0,0,0-.85-1,.89.89,0,0,0-.7-.25,1.21,1.21,0,0,0-.47.31,10.27,10.27,0,0,0-1.89,2.92c-.19.39-.38.77-.59,1.15-1.09,2-2.48,3.13-4,3.32a7.08,7.08,0,0,1-1.13,0c-.75,0-1.4,0-1.78.38a2.37,2.37,0,0,0-.44,1.08c0,.2-.1.4-.16.59a2.25,2.25,0,0,1-1.07,1.31,1.28,1.28,0,0,1-1,.08,1.81,1.81,0,0,1-.85-.7c-.24-.33-.46-.67-.67-1a10,10,0,0,0-.88-1.26,2.13,2.13,0,0,0-2-.83,3.58,3.58,0,0,0-.59.25,2.71,2.71,0,0,1-1.24.39h0a2.8,2.8,0,0,1-1.57-.64,2,2,0,0,0-1-.46,2.09,2.09,0,0,0-.67.22,3.4,3.4,0,0,1-.57.23,4.18,4.18,0,0,1-3-.57,5.07,5.07,0,0,0-1.83-.61,4.9,4.9,0,0,0-2.42.75,7.18,7.18,0,0,1-2.29.86l-.14-1a6.56,6.56,0,0,0,2-.76,5.6,5.6,0,0,1,2.93-.86,6,6,0,0,1,2.2.71,3.41,3.41,0,0,0,2.3.52,4.17,4.17,0,0,0,.44-.19,2.68,2.68,0,0,1,1.06-.31,2.73,2.73,0,0,1,1.62.64,2,2,0,0,0,1,.46h0a1.94,1.94,0,0,0,.79-.28,4.25,4.25,0,0,1,.78-.33,3.09,3.09,0,0,1,3,1.14,10.81,10.81,0,0,1,1,1.4,9.53,9.53,0,0,0,.62.94,1,1,0,0,0,.37.36.34.34,0,0,0,.25,0,1.31,1.31,0,0,0,.56-.72c.05-.17.09-.35.14-.52a2.53,2.53,0,0,1,3.22-2.23,6.39,6.39,0,0,0,1,0c1.51-.19,2.6-1.63,3.24-2.81.21-.36.39-.74.58-1.11a11,11,0,0,1,2.09-3.2,2.12,2.12,0,0,1,.94-.57,1.88,1.88,0,0,1,1.57.46,5.81,5.81,0,0,1,1,1.2c.14.2.29.4.44.59s.78.88,1.42.75a2.29,2.29,0,0,0,.8-.44,3.52,3.52,0,0,1,.93-.55,2.49,2.49,0,0,1,3,1.46,3.7,3.7,0,0,1-.31,3.24,9.26,9.26,0,0,1-1.66,2l.11.06a1.52,1.52,0,0,0,1.09,0,6.38,6.38,0,0,0,.9-.51,4.72,4.72,0,0,1,3.32-.89,4,4,0,0,0,2.07-.34,4.09,4.09,0,0,0,1.13-1.23,5,5,0,0,1,1.41-1.5,4.7,4.7,0,0,1,2.23-.56,26.8,26.8,0,0,1,7.31.57l.21.05.11.17a2,2,0,0,0,1.66,1,7.13,7.13,0,0,0,2.35-.66l2-.8c1.08-.44,2.45-.83,3.45,0a3.54,3.54,0,0,1,.9,1.32l2.52,5.55a5.18,5.18,0,0,1,.59,2,5.25,5.25,0,0,1-.2,1.43,2.51,2.51,0,0,0-.05,1.64,2.78,2.78,0,0,0,1.06.92,2.37,2.37,0,0,1,1.42,3.07,1.8,1.8,0,0,0-.06,1,1.44,1.44,0,0,0,.36.46,7.38,7.38,0,0,0,5.54,1.68,24.06,24.06,0,0,0,5.7-1.32l.36-.12a4.36,4.36,0,0,1,5,.76l.54.4a13,13,0,0,0,6.6,1.79c.65,0,1.3.06,1.95.08a31.15,31.15,0,0,1,4.8.38,1.74,1.74,0,0,1,.45-.62Z" fill="#23639e"/><path d="M502.37,824.21a8.48,8.48,0,0,0-.33,1.07,1.67,1.67,0,0,1-.32,0,3.46,3.46,0,0,1-1.12-.18,8.06,8.06,0,0,1-3-2,11.7,11.7,0,0,1-2.91-3.59c-1.22-2.77-.18-5.67.82-8.46a27,27,0,0,0,1.2-4c.7-3.91-.72-7.64-2.21-11.59a46.85,46.85,0,0,1-2.08-6.4,22.12,22.12,0,0,1,.23-10.39c.17-.61.36-1.21.55-1.82.62-2,1.22-3.94.88-5.88a12.81,12.81,0,0,0-.62-2.07,12.43,12.43,0,0,1-.69-2.39c-.4-2.62.76-5.06,1.88-7.42l.34-.71a47.28,47.28,0,0,0,4.27-23.75,7.44,7.44,0,0,0-1.07-3.8,7.94,7.94,0,0,0-1.34-1.31,10.39,10.39,0,0,1-1.2-1.11c-1.77-2-2-4.8-2.15-7.29l0-.45a57.71,57.71,0,0,0-2.67-13.59l-.19-.57a19.87,19.87,0,0,1-1-3.77,19.58,19.58,0,0,1,.17-4.66c.2-1.66.5-3.51.79-5.29.24-1.46.49-3,.68-4.35-3.18,1.33-6.73,1.26-10.18,1.19-.78,0-1.59,0-2.33,0a103.58,103.58,0,0,0-10.74.75c-2.71.28-5.52.58-8.3.7-.52,0-1.87.07-2.44-.91a2.6,2.6,0,0,1-.23-1.55,15.07,15.07,0,0,0-.88-6.3l-.16-.42a5.78,5.78,0,0,1-.55-3.32,5.65,5.65,0,0,1,1.37-2.28l.31-.38c.43-.53.83-1.12,1.22-1.68a13.3,13.3,0,0,1,2.66-3.15,14.16,14.16,0,0,1,1.4-.93c.33-.2.67-.4,1-.62a8.25,8.25,0,0,0,3.38-5.45,18.45,18.45,0,0,0,.14-2,9.41,9.41,0,0,1,.72-4l.19-.38.41.13a4,4,0,0,0,2.92-.24,1.78,1.78,0,0,0-.26-1.38,1.73,1.73,0,0,0-1.31-.87h-.52a2.34,2.34,0,0,1-1.58-.33,2.42,2.42,0,0,1-.75-2,58.41,58.41,0,0,1,.15-6.75l1,.08a63.79,63.79,0,0,0-.14,6.63,1.62,1.62,0,0,0,.34,1.19,1.54,1.54,0,0,0,.95.13c.21,0,.43,0,.64,0a2.9,2.9,0,0,1,2.37,3.8l-.07.16-.15.09a5,5,0,0,1-3.45.53,9.83,9.83,0,0,0-.45,3.18,18.69,18.69,0,0,1-.15,2.09,9.3,9.3,0,0,1-3.8,6.13c-.34.24-.7.45-1,.66a12.69,12.69,0,0,0-1.3.85,12.5,12.5,0,0,0-2.45,2.92c-.39.59-.8,1.19-1.26,1.76l-.33.39a4.7,4.7,0,0,0-1.15,1.86,4.83,4.83,0,0,0,.51,2.73l.16.43a16,16,0,0,1,.94,6.68,1.88,1.88,0,0,0,.09,1c.18.31.66.44,1.52.41,2.75-.12,5.55-.41,8.25-.69a102.21,102.21,0,0,1,10.84-.76c.79,0,1.57,0,2.35,0,3.63.07,7.39.15,10.54-1.47l.85-.43-.12.94c-.19,1.66-.5,3.51-.79,5.29s-.59,3.61-.79,5.25a19.19,19.19,0,0,0-.17,4.41,19.44,19.44,0,0,0,.93,3.58l.19.58a59.26,59.26,0,0,1,2.72,13.82l0,.45c.18,2.45.36,5,1.9,6.7a10.81,10.81,0,0,0,1.1,1,9.12,9.12,0,0,1,1.5,1.48,8.16,8.16,0,0,1,1.26,4.31,48.14,48.14,0,0,1-4.36,24.26l-.34.72c-1.06,2.23-2.15,4.52-1.79,6.84a11.63,11.63,0,0,0,.64,2.2,12.37,12.37,0,0,1,.66,2.24c.39,2.17-.27,4.29-.91,6.35-.19.59-.37,1.19-.53,1.78a21,21,0,0,0-.22,9.91,45.67,45.67,0,0,0,2,6.26c1.48,3.91,3,7.94,2.26,12.12a26.4,26.4,0,0,1-1.24,4.19c-1,2.73-1.9,5.31-.85,7.71a10.84,10.84,0,0,0,2.68,3.26,7.4,7.4,0,0,0,2.59,1.81A2.77,2.77,0,0,0,502.37,824.21Z" fill="#23639e"/></svg>