<svg id="Layer_1" data-name="Layer 1" xmlns="http://www.w3.org/2000/svg" xmlns:xlink="http://www.w3.org/1999/xlink" viewBox="0 0 24.45 32.43"><defs><style>.cls-1{stroke:#5b80a0;stroke-miterlimit:10;stroke-width:0.5px;fill:#ccc;}.cls-2{fill:#303c42;}.cls-3{fill:#2f4559;}.cls-4{fill:#334b5f;}.cls-5{fill:#d7d8d6;}.cls-6{fill:#cfdce7;}.cls-7{fill:#87addb;}.cls-8{opacity:0.1;isolation:isolate;}.cls-9{fill:#e7f3ff;}.cls-10{fill:#ffd259;}</style><linearGradient id="linear-gradient" x1="12.5" y1="6.75" x2="12.5" y2="37.76" gradientUnits="userSpaceOnUse"><stop offset="0" stop-color="green"/><stop offset="0.49" stop-color="#3295ce"/><stop offset="0.69" stop-color="#3892c7"/><stop offset="0.83" stop-color="#438cbb"/><stop offset="0.95" stop-color="#5384a9"/><stop offset="1" stop-color="#5b80a0"/></linearGradient></defs><path class="cls-1" d="M12.5,6.37a12,12,0,0,0-12,12c0,4.79,1.6,6.19,10.78,19.36a1.5,1.5,0,0,0,2.1.3,1.42,1.42,0,0,0,.3-.3c9.18-13.17,10.78-14.57,10.78-19.36A12,12,0,0,0,12.5,6.37Z" transform="translate(-0.27 -6.12)"/><path class="cls-2" d="M23.46,18.77l-11-6.31A2,2,0,0,0,9.86,13L7.72,16.09a1.76,1.76,0,0,0-.32,1,1.79,1.79,0,0,0,.89,1.54L10.61,20l-.42.56a1.82,1.82,0,0,0-.35,1.06,1.78,1.78,0,0,0,.38,1.06l-.62.93h-3V22.38A.41.41,0,0,0,6.18,22H4.56a.41.41,0,0,0-.41.41v4.06a.41.41,0,0,0,.41.41H6.18a.41.41,0,0,0,.41-.41V26h3a2.46,2.46,0,0,0,2-1.09l.66-1a1.74,1.74,0,0,0,.39.05,1.85,1.85,0,0,0,1.59-.9l.45-.74,3.46,2a.46.46,0,0,0,.2.05.25.25,0,0,0,.12,0,.39.39,0,0,0,.25-.2l.3-.61.14,0A2.86,2.86,0,0,0,22,20.75a3.31,3.31,0,0,0-.06-.53l1.46-.74a.4.4,0,0,0,.23-.35A.41.41,0,0,0,23.46,18.77Z" transform="translate(-0.27 -6.12)"/><rect class="cls-3" x="4.69" y="16.67" width="0.81" height="3.25"/><path class="cls-4" d="M11,24.5a1.61,1.61,0,0,1-1.35.73h-3v-.82h3a.79.79,0,0,0,.67-.36l.57-.84.69.42Z" transform="translate(-0.27 -6.12)"/><path class="cls-5" d="M13.57,22.69a1.06,1.06,0,0,1-1.42.35l-1-.61a1,1,0,0,1-.46-.82.93.93,0,0,1,.19-.57l.47-.64L14,22Z" transform="translate(-0.27 -6.12)"/><path class="cls-6" d="M18.21,23.44,8.7,18a1,1,0,0,1-.48-.83,1,1,0,0,1,.17-.55l1-1.46,10.06,5.8Z" transform="translate(-0.27 -6.12)"/><path class="cls-7" d="M21.23,20.75a2,2,0,0,1-1.77,2l.85-1.7.9-.46A.89.89,0,0,1,21.23,20.75Z" transform="translate(-0.27 -6.12)"/><path class="cls-8" d="M21.23,20.75a2,2,0,0,1-1.77,2l.85-1.7.9-.46A.89.89,0,0,1,21.23,20.75Z" transform="translate(-0.27 -6.12)"/><path class="cls-9" d="M20,20.29,9.88,14.44l.65-.92a1.14,1.14,0,0,1,1.5-.34L22.4,19.1Z" transform="translate(-0.27 -6.12)"/><circle class="cls-10" cx="17.29" cy="15.45" r="0.41"/></svg>
